<?xml version="1.0" encoding="UTF-8"?>
<svg version="1.1" xmlns="http://www.w3.org/2000/svg" viewBox="55.34 20.0 556.24 583.22">

<path d="M134.5390625 24.859375 C133.43892822 25.47417725 132.33879395 26.08897949 131.20532227 26.72241211 C130.01176814 27.39807451 128.81833023 28.07394224 127.625 28.75 C126.39210587 29.442602 125.15894882 30.13473617 123.92553711 30.82641602 C120.27830774 32.8748452 116.63844853 34.93601296 113 37 C112.05108887 37.53802246 111.10217773 38.07604492 110.12451172 38.63037109 C105.04942117 41.51283933 99.98631208 44.41579951 94.92578125 47.32373047 C91.51720605 49.27660741 88.10259759 51.21871702 84.6875 53.16015625 C82.77511557 54.24852881 80.86285838 55.33712454 78.95065308 56.42581177 C77.70620998 57.13378728 76.46136638 57.84105935 75.21609497 58.5475769 C73.46712336 59.54009556 71.71986221 60.53562643 69.97265625 61.53125 C68.96468994 62.10423828 67.95672363 62.67722656 66.91821289 63.26757812 C61.66760459 66.23983601 61.66760459 66.23983601 57 70 C56.89380573 72.57493106 56.85347585 75.12337689 56.85460567 77.69912338 C56.85105506 78.51932886 56.84750444 79.33953433 56.84384623 80.18459451 C56.83306897 82.96875189 56.82952275 85.75287307 56.82591248 88.53704834 C56.8197552 90.5390022 56.81317961 92.54095482 56.80621868 94.54290605 C56.78836 100.07215307 56.7769533 105.60139778 56.766662 111.13066339 C56.75704684 115.86625541 56.74373037 120.60183409 56.73039304 125.33741686 C56.68273544 142.30304929 56.6501386 159.26870278 56.62109375 176.234375 C56.61993876 176.90395755 56.61878377 177.5735401 56.61759378 178.26341303 C56.57190535 204.75700565 56.53225566 231.250608 56.50556884 257.74422696 C56.49894503 264.31027912 56.49207165 270.87633101 56.48510742 277.44238281 C56.48434424 278.16793968 56.48358105 278.89349655 56.48279474 279.64103999 C56.45784511 303.17137693 56.40435775 326.70153724 56.33508916 350.2317823 C56.26404357 374.40960529 56.21891692 398.58733326 56.20758807 422.76526185 C56.20598309 426.17820704 56.20409549 429.59115203 56.20204353 433.00409698 C56.20165065 433.6758245 56.20125777 434.34755202 56.20085298 435.03963492 C56.19378695 445.86289419 56.1595479 456.68590576 56.11538252 467.50907007 C56.07162987 478.38295666 56.05774139 489.25655944 56.07247578 500.13052484 C56.07960793 506.02497185 56.07356692 511.91865315 56.03289795 517.81298065 C55.99599187 523.20452524 55.99566828 528.59476244 56.02502156 533.98634198 C56.02911316 535.94132154 56.0195403 537.89638496 55.99525576 539.85121796 C55.96429401 542.50159597 55.982246 545.14723523 56.01282406 547.79751205 C55.9920938 548.56380302 55.97136354 549.33009399 55.95000508 550.1196059 C55.92987941 552.56260491 55.92987941 552.56260491 57 556 C59.43886929 558.17510511 62.06945215 559.58694289 65 561 C65.90105469 561.50781006 66.80210938 562.01562012 67.73046875 562.53881836 C68.54128906 562.96815674 69.35210937 563.39749512 70.1875 563.83984375 C71.12070068 564.33798584 72.05390137 564.83612793 73.01538086 565.34936523 C74.00030518 565.87344971 74.98522949 566.39753418 76 566.9375 C84.40784196 571.44957702 92.71368327 576.09827826 100.9375 580.9375 C109.50007592 585.97138585 118.0964824 590.9367047 126.75 595.8125 C128.34896118 596.72020142 128.34896118 596.72020142 129.98022461 597.64624023 C130.97159424 598.20255127 131.96296387 598.7588623 132.984375 599.33203125 C133.85803711 599.82421143 134.73169922 600.3163916 135.63183594 600.82348633 C137.84736964 601.92417261 139.54422733 602.73312203 142 603 C144.0152878 602.30098199 144.0152878 602.30098199 146 601.03515625 C146.79003418 600.57310791 147.58006836 600.11105957 148.39404297 599.63500977 C149.25400879 599.11608154 150.11397461 598.59715332 151 598.0625 C152.89806486 596.94728219 154.79652316 595.83273384 156.6953125 594.71875 C157.71270508 594.11675781 158.73009766 593.51476562 159.77832031 592.89453125 C164.85607381 589.90852283 169.9746669 586.99428725 175.09280396 584.07827759 C176.8802088 583.0595312 178.66668384 582.03917297 180.45288086 581.01831055 C188.14714663 576.62142764 195.84973133 572.23935752 203.5625 567.875 C204.45888184 567.36718994 205.35526367 566.85937988 206.27880859 566.33618164 C212.48785841 562.82821425 218.73756949 559.41587119 225 556 C225 545.44 225 534.88 225 524 C237.12095116 530.69538255 248.95348386 537.78208496 260.7578125 545.01855469 C264.17655576 547.1079011 267.60252629 549.18490607 271.03125 551.2578125 C281.37932359 557.51595117 291.72436868 563.77274183 301.9375 570.25 C302.67145996 570.7130957 303.40541992 571.17619141 304.16162109 571.65332031 C308.34848677 574.29950056 312.50725332 576.98411994 316.65234375 579.6953125 C318.55965084 580.92225593 320.46719817 582.148826 322.375 583.375 C323.70519165 584.26106934 323.70519165 584.26106934 325.06225586 585.16503906 C326.31147827 585.96119629 326.31147827 585.96119629 327.5859375 586.7734375 C328.3186084 587.25216309 329.0512793 587.73088867 329.80615234 588.22412109 C332.02211037 589.24142788 332.02211037 589.24142788 334.43603516 588.34155273 C337.17523762 586.90830978 339.8106555 585.39279427 342.4375 583.76171875 C344.01084106 582.78887939 344.01084106 582.78887939 345.6159668 581.79638672 C346.73269775 581.1004541 347.84942871 580.40452148 349 579.6875 C350.1727012 578.96072619 351.3456371 578.23433096 352.51879883 577.50830078 C354.89232668 576.03850009 357.26447674 574.56651859 359.63525391 573.09228516 C364.31624259 570.1815267 369.00158167 567.27781335 373.6875 564.375 C374.51999268 563.8588916 375.35248535 563.3427832 376.21020508 562.81103516 C388.08398597 555.45826225 400.00586059 548.17967678 411.9921875 541.01171875 C417.33859189 537.80809627 422.64057886 534.53461967 427.9375 531.25 C428.86884766 530.67378906 429.80019531 530.09757812 430.75976562 529.50390625 C434.2008346 527.37218266 437.63170778 525.24552814 441 523 C440.95810547 523.94319092 440.91621094 524.88638184 440.87304688 525.8581543 C440.73635981 529.37157407 440.63627798 532.88215775 440.56054688 536.3972168 C440.52040693 537.91557479 440.4658767 539.43362522 440.39648438 540.95092773 C439.69338123 549.3263292 439.69338123 549.3263292 442.37695312 556.89135742 C444.51510698 558.25501577 446.63083724 559.09514944 449 560 C450.96041364 561.06985988 452.90743579 562.16446053 454.84375 563.27734375 C457.06178269 564.49869941 459.28057028 565.71868485 461.5 566.9375 C470.48223866 571.8911711 479.40361144 576.93115312 488.25 582.125 C496.39111406 586.89957991 504.54874104 591.64179881 512.75 596.3125 C513.72098633 596.87018066 514.69197266 597.42786133 515.69238281 598.00244141 C516.59311523 598.51339355 517.49384766 599.0243457 518.421875 599.55078125 C519.60668457 600.22620972 519.60668457 600.22620972 520.81542969 600.9152832 C522.92713407 601.96381948 524.66634754 602.67431078 527 603 C529.89167277 601.63748269 529.89167277 601.63748269 533.0625 599.5 C540.23814672 594.9924091 547.57962931 590.84080437 555 586.75 C557.35200548 585.45001916 559.70334633 584.14883818 562.0546875 582.84765625 C562.63821487 582.5249324 563.22174225 582.20220856 563.82295227 581.8697052 C569.60569768 578.66950996 575.36944221 575.43628859 581.125 572.1875 C581.97449219 571.70958008 582.82398438 571.23166016 583.69921875 570.73925781 C585.39262789 569.78202921 587.07445645 568.80399105 588.74338645 567.80469441 C591.23095605 566.42617562 593.60329044 565.29245395 596.20527393 564.1817615 C604.34799481 560.57952471 604.34799481 560.57952471 609.98755585 554.03271061 C611.57976451 548.25155227 611.25257333 542.29041258 611.11161804 536.34942627 C611.12620277 534.3362289 611.14822351 532.32307406 611.17701465 530.31002975 C611.23434871 524.7897926 611.18585826 519.27481338 611.11970603 513.75486207 C611.06680631 507.79829359 611.11201057 501.84235811 611.14482117 495.88575745 C611.19062286 484.8967394 611.1598108 473.90934929 611.09032031 462.92053051 C611.02659375 452.7709619 610.99748336 442.62199042 611.00229836 432.47222137 C611.00258103 431.79862864 611.0028637 431.1250359 611.00315494 430.43103126 C611.00437534 427.69664837 611.00578983 424.96226569 611.00747492 422.22788304 C611.02298732 396.58854795 610.94511012 370.95027301 610.82117657 345.31127198 C610.71152555 322.53135943 610.6691922 299.7523332 610.68823242 276.97216797 C610.68943337 275.50888798 610.6906331 274.04560799 610.69183161 272.58232799 C610.692426 271.85890961 610.69302039 271.13549123 610.69363279 270.39015108 C610.69659659 266.74857153 610.69943028 263.1069919 610.70212078 259.46541214 C610.70265888 258.74698507 610.70319697 258.02855801 610.70375137 257.28836043 C610.71717869 238.25114313 610.68260955 219.21402338 610.63228065 200.17687678 C610.63049995 199.4997893 610.62871925 198.82270182 610.6268846 198.12509653 C610.62510608 197.44924557 610.62332757 196.7733946 610.62149516 196.07706331 C610.61972149 195.40244975 610.61794783 194.72783619 610.61612041 194.0327798 C610.61252918 192.67418177 610.60889695 191.31558385 610.60522344 189.95698604 C610.57991646 180.48338988 610.5721486 171.00992345 610.57609397 161.536297 C610.58103172 149.33091908 610.55178976 137.12630293 610.46673813 124.92118797 C610.42648174 119.03463266 610.40215434 113.14916503 610.42084503 107.26247597 C610.43741796 101.87692501 610.40802459 96.49368524 610.34137271 91.10853919 C610.32529854 89.15726222 610.32616297 87.20575967 610.34537109 85.25451103 C610.85144131 75.20408384 610.85144131 75.20408384 606.79220068 66.55416918 C604.21958904 64.97880462 601.85583245 63.94345688 599 63 C598.00621338 62.4423999 597.01242676 61.8847998 595.98852539 61.31030273 C595.17891357 60.87661377 594.36930176 60.4429248 593.53515625 59.99609375 C588.1343819 57.07836873 582.77971607 54.08592844 577.4375 51.0625 C576.46514404 50.51255371 575.49278809 49.96260742 574.4909668 49.39599609 C564.64794206 43.81804777 554.84558203 38.16991036 545.05078125 32.5078125 C544.05643066 31.93708008 543.06208008 31.36634766 542.03759766 30.77832031 C539.91955292 29.53833978 537.82143935 28.26395119 535.73974609 26.96386719 C534.15734131 25.98788574 534.15734131 25.98788574 532.54296875 24.9921875 C531.59832764 24.39519043 530.65368652 23.79819336 529.68041992 23.18310547 C526.52620148 21.79087097 525.2261926 21.92482653 522 23 C519.72532186 24.12564407 517.56357081 25.28864102 515.375 26.5625 C514.69679199 26.95034668 514.01858398 27.33819336 513.31982422 27.73779297 C505.37251723 32.30952848 497.50463826 37.01937886 489.62524414 41.70678711 C480.6444993 47.04611324 471.61125188 52.28957704 462.55444336 57.49902344 C451.34043735 63.94959532 440.166166 70.46704119 429 77 C427.86691406 77.66257813 426.73382813 78.32515625 425.56640625 79.0078125 C411.34389324 87.32537832 397.14779191 95.68471425 382.98461914 104.10302734 C373.97919291 109.44463386 364.92237385 114.69193768 355.82836914 119.88110352 C351.38565357 122.42437474 346.96956455 124.96572604 342.6953125 127.78515625 C342.09444824 128.17896484 341.49358398 128.57277344 340.87451172 128.97851562 C339.40824342 129.95690926 337.96067415 130.9631862 336.515625 131.97265625 C333.01313414 133.40302131 331.46751623 132.36878453 328 131 C326.2331715 130.05924278 324.49588174 129.06131863 322.7890625 128.015625 C321.80397705 127.41733887 320.8188916 126.81905273 319.80395508 126.20263672 C318.7548999 125.5582666 317.70584473 124.91389648 316.625 124.25 C314.37185648 122.88153138 312.11804203 121.51423317 309.86328125 120.1484375 C309.00451637 119.62716782 309.00451637 119.62716782 308.12840271 119.09536743 C302.39570657 115.62061727 296.60988605 112.24031887 290.8125 108.875 C283.15115743 104.42170412 275.50191882 99.94953328 267.875 95.4375 C266.97354248 94.90423096 266.07208496 94.37096191 265.14331055 93.8215332 C261.52537632 91.68037306 257.90820907 89.53791907 254.29101562 87.39550781 C243.03527031 80.73038865 231.76083701 74.09914177 220.45800781 67.51416016 C203.69333155 57.74595645 186.95243899 47.93676751 170.25 38.0625 C169.37029541 37.54333008 168.49059082 37.02416016 167.58422852 36.48925781 C163.37054214 34.00103248 159.16482326 31.50089578 154.97265625 28.9765625 C154.18407227 28.50468506 153.39548828 28.03280762 152.58300781 27.54663086 C151.11426196 26.66743643 149.64854022 25.78316161 148.18652344 24.89282227 C142.40110916 21.44114841 140.30516853 21.61718244 134.5390625 24.859375 Z " fill="#FEFEFE" transform="translate(0,0)"/>
<path d="M0 0 C1.85839844 0.87280273 1.85839844 0.87280273 3.609375 1.93359375 C4.27219482 2.32973877 4.93501465 2.72588379 5.61791992 3.1340332 C6.32150635 3.56417725 7.02509277 3.99432129 7.75 4.4375 C9.28243721 5.35696232 10.81499245 6.27622794 12.34765625 7.1953125 C13.12512207 7.66485352 13.90258789 8.13439453 14.70361328 8.61816406 C18.18176918 10.711122 21.68495195 12.76072636 25.1875 14.8125 C29.83495373 17.54365635 34.47832078 20.28162679 39.1171875 23.02734375 C48.58265875 28.62979582 58.05873474 34.21270829 67.5625 39.75 C76.48485817 44.94863633 85.40288168 50.1545621 94.3125 55.375 C94.92041382 55.73119415 95.52832764 56.08738831 96.15466309 56.45437622 C106.17634599 62.32832674 116.17239569 68.24449924 126.16040039 74.17553711 C133.67024228 78.63095963 141.20258119 83.04606853 148.75 87.4375 C168.39986511 98.8741738 168.39986511 98.8741738 172.92561054 101.79634857 C175.12848511 103.12874876 175.12848511 103.12874876 178.15388012 104.36411285 C182.15404459 106.31394302 184.78585923 107.902098 188 111 C189.90318157 116.73984665 189.65125359 122.25755644 189.47583008 128.24804688 C189.47215973 130.00289638 189.47422812 131.75776583 189.48158264 133.51260376 C189.48530417 138.26167504 189.40903956 143.0064543 189.31812119 147.75452995 C189.23669777 152.72175024 189.22920593 157.68907569 189.21379089 162.65686035 C189.17342899 172.05693812 189.06681545 181.45504385 188.93624753 190.85425425 C188.79079865 201.55770524 188.71942951 212.26125186 188.65420687 222.96544552 C188.51842395 244.97806322 188.28985562 266.98890726 188 289 C184.03527162 287.46378946 180.53471383 285.64085735 176.88671875 283.4453125 C176.31347366 283.10249237 175.74022858 282.75967224 175.14961243 282.40646362 C173.32682869 281.31606702 171.5068983 280.22103471 169.6875 279.125 C157.93129698 270.91282966 157.93129698 270.91282966 144.8125 266.9375 C141.23021679 268.29080699 138.87892457 269.65472224 137 273 C136.2465312 277.35349752 136.34860363 281.672141 136.40063477 286.08032227 C136.39876989 287.42431084 136.39473147 288.76829789 136.38868713 290.11227417 C136.37872129 293.75498999 136.39986659 297.39692636 136.42716718 301.03952909 C136.45101775 304.85331786 136.44805238 308.66709171 136.44847107 312.48094177 C136.45309733 318.88415707 136.47672779 325.28707477 136.51293945 331.69018555 C136.55468978 339.09235574 136.57225545 346.49425809 136.5755592 353.89653927 C136.5791593 361.77963544 136.59803347 369.66263529 136.62267947 377.54569125 C136.62890646 379.81648278 136.63254378 382.08726698 136.63571358 384.35806465 C136.64161677 387.92614625 136.65793696 391.49403673 136.68231773 395.06203842 C136.69330144 396.99588708 136.69459656 398.92978314 136.69561768 400.86366272 C136.7055928 402.01467468 136.71556793 403.16568665 136.72584534 404.35157776 C136.7328211 405.85173353 136.7328211 405.85173353 136.73993778 407.38219547 C137.0121184 410.12198465 137.48896502 411.71224075 139 414 C142.78321359 416.52214239 145.62940376 416.82398728 150 416 C153.78055426 414.34107242 157.20214157 412.20275618 160.6875 410 C161.65341064 409.41001221 162.61932129 408.82002441 163.61450195 408.2121582 C166.42150199 406.49299697 169.21315351 404.75159917 172 403 C176.07878877 400.44273492 176.07878877 400.44273492 178.0324707 399.22460938 C179.57422382 398.25848351 181.10590645 397.27633824 182.63671875 396.29296875 C185 395 185 395 188 395 C188 451.1 188 507.2 188 565 C183.06554869 563.3551829 179.39105823 561.57934348 175.125 558.8125 C173.70595141 557.90980679 172.28666502 557.00748733 170.8671875 556.10546875 C170.09342773 555.61095215 169.31966797 555.11643555 168.52246094 554.60693359 C163.78148554 551.58669549 159.01548361 548.60636353 154.25 545.625 C153.2172998 544.97877686 152.18459961 544.33255371 151.12060547 543.66674805 C144.08167181 539.27278375 137.00109948 534.95691691 129.87353516 530.70849609 C124.90890667 527.74864314 119.95932303 524.76534989 115.0234375 521.7578125 C114.41322754 521.38621002 113.80301758 521.01460754 113.17431641 520.63174438 C110.74122512 519.14976842 108.30821149 517.66768252 105.87756348 516.18170166 C97.33563195 510.9599372 88.70975858 505.93589876 80 501 C80 511.56 80 522.12 80 533 C76.803125 534.7325 73.60625 536.465 70.3125 538.25 C60.00039046 543.86134065 49.79195492 549.63895857 39.61767578 555.49560547 C36.97585622 557.01387558 34.33043359 558.52565694 31.68359375 560.03515625 C30.80509766 560.53635986 29.92660156 561.03756348 29.02148438 561.55395508 C27.27217288 562.5510949 25.52218394 563.54704731 23.77148438 564.54174805 C19.35088328 567.05940548 14.95774231 569.6131187 10.59765625 572.234375 C9.73027832 572.7512085 8.86290039 573.26804199 7.96923828 573.80053711 C6.31945781 574.78579173 4.67553988 575.78095116 3.03857422 576.78735352 C1.93473389 577.44368774 1.93473389 577.44368774 0.80859375 578.11328125 C-0.15348999 578.69783081 -0.15348999 578.69783081 -1.13500977 579.29418945 C-3.59009604 580.22332343 -4.55414216 579.931997 -7 579 C-8.92391551 578.03777766 -10.82108434 577.02143357 -12.69921875 575.97265625 C-13.8166748 575.35076416 -14.93413086 574.72887207 -16.08544922 574.08813477 C-17.28625129 573.4131339 -18.48693219 572.73791743 -19.6875 572.0625 C-20.92713666 571.36951449 -22.16688353 570.67672609 -23.40673828 569.98413086 C-30.41623928 566.05983888 -37.37224387 562.05537011 -44.26611328 557.93115234 C-52.67030389 552.94353252 -61.27355946 548.30035288 -69.85107422 543.61938477 C-70.46022171 543.28587006 -71.0693692 542.95235535 -71.69697571 542.60873413 C-73.36344268 541.69650274 -75.03140141 540.78699802 -76.69946289 539.87768555 C-77.78864014 539.25804932 -78.87781738 538.63841309 -80 538 C-80.67228255 537.67361561 -81.34456511 537.34723121 -82.03721986 537.01095638 C-84.26054181 535.83296879 -86.12240997 534.67978033 -88 533 C-88.84481793 529.84452366 -89.07918089 527.96470623 -88.99834919 524.80589199 C-89.00907793 523.98077154 -89.01980666 523.1556511 -89.03086051 522.305527 C-89.05714928 519.52753473 -89.02619462 516.75311172 -88.99568176 513.97520447 C-89.00274824 511.96907212 -89.01331356 509.96294954 -89.02708548 507.95685202 C-89.05474086 502.4343036 -89.03230344 496.91290718 -89.00182021 491.39041507 C-88.97760624 485.43872055 -88.99938158 479.48717403 -89.01542664 473.53547668 C-89.03808444 462.54708485 -89.02454295 451.55905005 -88.99284665 440.57069722 C-88.96377223 430.42073889 -88.95079058 420.27091245 -88.95371056 410.12091255 C-88.95388626 409.44807221 -88.95406197 408.77523188 -88.954243 408.08200244 C-88.95498838 405.35084755 -88.95582201 402.6196927 -88.95677997 399.88853788 C-88.96561908 374.26069156 -88.93021845 348.63307904 -88.87329718 323.00530325 C-88.82292743 300.22638363 -88.80507216 277.44767268 -88.81665039 254.66870117 C-88.81738367 253.20596923 -88.81811622 251.74323729 -88.81884805 250.28050535 C-88.81921039 249.55736522 -88.81957273 248.83422509 -88.81994605 248.08917162 C-88.82175388 244.44913405 -88.82349204 240.80909645 -88.8251543 237.1690588 C-88.82548518 236.45096643 -88.82581605 235.73287405 -88.82615695 234.99302131 C-88.83449795 215.96967497 -88.81901986 196.9463503 -88.79580516 177.92301852 C-88.79332476 175.87666246 -88.79084534 173.83030639 -88.78837106 171.78395033 C-88.78672186 170.42640193 -88.78505303 169.06885355 -88.78336443 167.7113052 C-88.77175247 158.23869705 -88.76909864 148.76612364 -88.77246393 139.29350966 C-88.77674835 127.08823169 -88.76412132 114.88314062 -88.72361246 102.67792099 C-88.70446323 96.7898591 -88.69333933 90.90207123 -88.70369339 85.01398087 C-88.71290386 79.6296342 -88.69921187 74.24586248 -88.66679271 68.86161 C-88.65908965 66.9081495 -88.6599053 64.95463413 -88.66984615 63.00118374 C-88.6820437 60.35618332 -88.66380726 57.71312374 -88.63758564 55.06826687 C-88.64843393 54.30049228 -88.65928222 53.53271768 -88.67045924 52.74167719 C-88.59789765 48.89494853 -88.34039972 47.34145201 -85.57608718 44.56859404 C-84.30092402 43.79213999 -84.30092402 43.79213999 -83 43 C-82.38785645 42.61529541 -81.77571289 42.23059082 -81.14501953 41.83422852 C-80.56349121 41.51897217 -79.98196289 41.20371582 -79.3828125 40.87890625 C-78.70621582 40.50813965 -78.02961914 40.13737305 -77.33251953 39.75537109 C-76.60403809 39.36172363 -75.87555664 38.96807617 -75.125 38.5625 C-73.49953621 37.67141841 -71.87455906 36.77944871 -70.25 35.88671875 C-69.39277344 35.41669434 -68.53554687 34.94666992 -67.65234375 34.46240234 C-63.12472757 31.96604548 -58.62466723 29.42129607 -54.125 26.875 C-53.18140625 26.34140869 -52.2378125 25.80781738 -51.265625 25.25805664 C-42.0204027 20.02322467 -32.79703751 14.7501089 -23.57861328 9.46826172 C-21.38084127 8.20999046 -19.18061269 6.95599681 -16.97753906 5.70703125 C-15.09011276 4.62496461 -13.21512284 3.52065912 -11.35839844 2.38671875 C-10.57754883 1.91878906 -9.79669922 1.45085938 -8.9921875 0.96875 C-8.33331543 0.56076172 -7.67444336 0.15277344 -6.99560547 -0.26757812 C-4.29921249 -1.25720119 -2.72335899 -0.8181892 0 0 Z " fill="#065288" transform="translate(145,23)"/>
<path d="M0 0 C0.33 0 0.66 0 1 0 C1 160.05 1 320.1 1 485 C-12.365 492.425 -12.365 492.425 -26 500 C-33.30923378 504.08457182 -40.61792901 508.1695078 -47.91845703 512.26953125 C-50.02056392 513.44998868 -52.12312244 514.62964213 -54.22607422 515.80859375 C-57.38133206 517.57816395 -60.53467692 519.35109619 -63.6875 521.125 C-64.63786133 521.65754395 -65.58822266 522.19008789 -66.56738281 522.73876953 C-70.29529001 524.84053091 -73.93593947 526.90512066 -77.39453125 529.4296875 C-80 531 -80 531 -81.84936523 530.76489258 C-84.41181062 529.85353585 -86.64486424 528.66760645 -89.015625 527.33203125 C-90.0065918 526.77596191 -90.99755859 526.21989258 -92.01855469 525.64697266 C-93.61812012 524.73890869 -93.61812012 524.73890869 -95.25 523.8125 C-96.36536133 523.1839209 -97.48072266 522.5553418 -98.62988281 521.90771484 C-107.02061975 517.1635302 -115.34339119 512.30707145 -123.65039062 507.41796875 C-133.18190612 501.83549218 -142.85483604 496.5181105 -152.55761719 491.24072266 C-153.45685913 490.74950676 -153.45685913 490.74950676 -154.37426758 490.24836731 C-156.00305705 489.35884417 -157.63378663 488.47287617 -159.26464844 487.5871582 C-160.16731445 487.063396 -161.06998047 486.53963379 -162 486 C-163.16015625 485.3810083 -163.16015625 485.3810083 -164.34375 484.74951172 C-166.45730661 482.51694293 -166.45460327 480.78543888 -166.45318604 477.78120422 C-166.43254089 477.09672714 -166.41189575 476.41225006 -166.390625 475.70703125 C-166.38496521 475.00100266 -166.37930542 474.29497406 -166.37347412 473.56755066 C-166.35110411 471.31517374 -166.30091199 469.06439497 -166.25 466.8125 C-166.22993556 465.28452821 -166.21168468 463.75653144 -166.1953125 462.22851562 C-166.15123802 458.48506244 -166.08221074 454.74280205 -166 451 C-167.59328125 451.99580078 -167.59328125 451.99580078 -169.21875 453.01171875 C-177.71875 458.32421875 -177.71875 458.32421875 -179.84765625 459.64599609 C-181.32440264 460.57499286 -182.79013529 461.52166106 -184.24609375 462.48291016 C-184.95894531 462.94874512 -185.67179687 463.41458008 -186.40625 463.89453125 C-187.37014648 464.53612183 -187.37014648 464.53612183 -188.35351562 465.19067383 C-189.16852539 465.59129028 -189.16852539 465.59129028 -190 466 C-190.66 465.67 -191.32 465.34 -192 465 C-190.52667162 461.231434 -189.05156199 457.46357018 -187.57495117 453.69628906 C-187.07513801 452.42042915 -186.57577295 451.14439358 -186.0769043 449.86816406 C-182.81901998 441.53480439 -179.47101945 433.2471422 -176 425 C-172.55485588 416.76963209 -169.16736597 408.51754397 -165.8125 400.25 C-160.2153783 386.48523366 -154.5059154 372.76910202 -148.77050781 359.06152344 C-143.48063941 346.41366203 -138.25456622 333.74226004 -133.09472656 321.04077148 C-130.2024011 313.92886905 -127.27577698 306.83260848 -124.3125 299.75 C-119.85083884 289.08088962 -115.45055156 278.38703814 -111.0625 267.6875 C-110.71692047 266.84493652 -110.37134094 266.00237305 -110.01528931 265.13427734 C-105.21421952 253.42600877 -100.43596172 241.70867625 -95.67358398 229.98461914 C-93.03866613 223.51058108 -90.35404699 217.05988049 -87.625 210.625 C-85.06698062 204.59258991 -82.62832189 198.53215501 -80.30078125 192.40625 C-73.05323879 173.42770037 -65.04074085 154.7585743 -57.13330078 136.04882812 C-53.72893802 127.99331454 -50.33241914 119.93449723 -46.9375 111.875 C-46.60927246 111.09597321 -46.28104492 110.31694641 -45.94287109 109.51431274 C-40.29052159 96.0964058 -34.6812467 82.66081181 -29.08837891 69.21801758 C-25.72340591 61.13072819 -22.3448103 53.04968537 -18.93261719 44.98217773 C-16.93266427 40.24289866 -14.95959115 35.49276571 -12.99609375 30.73828125 C-12.72936356 30.09256668 -12.46263336 29.44685211 -12.18782043 28.78157043 C-10.86001915 25.56619021 -9.53390104 22.35012906 -8.21020508 19.13305664 C-5.5621127 12.71236351 -2.85865559 6.32988024 0 0 Z " fill="#71B3DE" transform="translate(607,72)"/>
<path d="M0 0 C3.65846662 1.47573117 6.93588856 3.41007373 10.296875 5.46484375 C11.82931221 6.38430607 13.36186745 7.30357169 14.89453125 8.22265625 C15.67199707 8.69219727 16.44946289 9.16173828 17.25048828 9.64550781 C20.72864418 11.73846575 24.23182695 13.78807011 27.734375 15.83984375 C32.38182873 18.5710001 37.02519578 21.30897054 41.6640625 24.0546875 C51.12953375 29.65713957 60.60560974 35.24005204 70.109375 40.77734375 C79.03173317 45.97598008 87.94975668 51.18190585 96.859375 56.40234375 C97.46728882 56.7585379 98.07520264 57.11473206 98.70153809 57.48171997 C108.72322099 63.35567049 118.71927069 69.27184299 128.70727539 75.20288086 C136.21711728 79.65830338 143.74945619 84.07341228 151.296875 88.46484375 C170.94674011 99.90151755 170.94674011 99.90151755 175.47248554 102.82369232 C177.67536011 104.15609251 177.67536011 104.15609251 180.70075512 105.3914566 C184.70091959 107.34128677 187.33273423 108.92944175 190.546875 112.02734375 C192.45005657 117.7671904 192.19812859 123.28490019 192.02270508 129.27539062 C192.01903473 131.03024013 192.02110312 132.78510958 192.02845764 134.53994751 C192.03217917 139.28901879 191.95591456 144.03379805 191.86499619 148.7818737 C191.78357277 153.74909399 191.77608093 158.71641944 191.76066589 163.6842041 C191.72030399 173.08428187 191.61369045 182.4823876 191.48312253 191.881598 C191.33767365 202.58504899 191.26630451 213.28859561 191.20108187 223.99278927 C191.06529895 246.00540697 190.83673062 268.01625101 190.546875 290.02734375 C189.886875 289.69734375 189.226875 289.36734375 188.546875 289.02734375 C188.876875 259.98734375 189.206875 230.94734375 189.546875 201.02734375 C187.566875 200.36734375 185.586875 199.70734375 183.546875 199.02734375 C181.04787905 197.71689466 178.60962288 196.37920174 176.171875 194.96484375 C174.73836137 194.14569311 173.30476545 193.32668647 171.87109375 192.5078125 C171.14712402 192.09192871 170.4231543 191.67604492 169.67724609 191.24755859 C166.45781129 189.40355961 163.22078021 187.59133198 159.984375 185.77734375 C155.25561271 183.12044028 150.53223364 180.45416038 145.8125 177.78125 C144.80775635 177.21245117 143.8030127 176.64365234 142.76782227 176.05761719 C140.80434128 174.94574176 138.84126116 173.83315798 136.87866211 172.71972656 C132.25432802 170.10130821 127.61722291 167.51314673 122.9453125 164.98046875 C117.89922979 162.23903764 112.93663067 159.37138973 107.984375 156.46484375 C102.27127667 153.1297324 96.55812468 149.93156989 90.59375 147.0625 C87.82358086 145.66155568 85.25444745 144.00407517 82.64453125 142.328125 C79.42953929 140.33447077 76.09627086 138.57287551 72.765625 136.78125 C70.29392258 135.43441215 67.83893663 134.06799148 65.390625 132.6796875 C64.67261719 132.27266602 63.95460937 131.86564453 63.21484375 131.44628906 C61.78919536 130.63649509 60.3646804 129.82470185 58.94140625 129.01074219 C56.16737636 127.4370661 53.58081286 126.03865637 50.546875 125.02734375 C50.546875 124.36734375 50.546875 123.70734375 50.546875 123.02734375 C49.81452637 122.91608154 49.08217773 122.80481934 48.32763672 122.69018555 C45.41506657 121.99592497 43.56827414 121.02458957 41.0546875 119.421875 C34.95861502 115.63861138 28.70224584 112.18117566 22.421875 108.71484375 C20.01910063 107.38489167 17.61702161 106.05368536 15.21484375 104.72265625 C14.0654834 104.08618164 12.91612305 103.44970703 11.73193359 102.79394531 C7.72562143 100.57183319 3.72673604 98.33691035 -0.265625 96.08984375 C-0.87833252 95.74526123 -1.49104004 95.40067871 -2.12231445 95.0456543 C-5.23116487 93.29320911 -8.33044089 91.52518568 -11.421875 89.7421875 C-12.06793701 89.3702124 -12.71399902 88.9982373 -13.37963867 88.61499023 C-15.14141855 87.59897349 -16.90087739 86.578935 -18.66015625 85.55859375 C-21.41165018 83.94184477 -21.41165018 83.94184477 -24.453125 83.02734375 C-24.453125 82.36734375 -24.453125 81.70734375 -24.453125 81.02734375 C-25.01273926 80.91358398 -25.57235352 80.79982422 -26.14892578 80.68261719 C-28.77640343 79.93540909 -30.91690789 78.84257735 -33.3203125 77.54296875 C-34.27800537 77.02605469 -35.23569824 76.50914063 -36.22241211 75.9765625 C-37.24729736 75.41582031 -38.27218262 74.85507813 -39.328125 74.27734375 C-40.38717041 73.70113281 -41.44621582 73.12492187 -42.53735352 72.53125 C-51.68098674 67.52170988 -60.66414834 62.26268332 -69.60546875 56.90234375 C-74.165815 54.17438587 -78.79058764 51.57605654 -83.453125 49.02734375 C-83.453125 48.03734375 -83.453125 47.04734375 -83.453125 46.02734375 C-81.71020508 44.65551758 -81.71020508 44.65551758 -79.22265625 43.234375 C-77.82237183 42.42492432 -77.82237183 42.42492432 -76.39379883 41.59912109 C-75.36150146 41.01855957 -74.3292041 40.43799805 -73.265625 39.83984375 C-72.19787842 39.22834473 -71.13013184 38.6168457 -70.0300293 37.98681641 C-60.43456448 32.51692456 -50.75877665 27.18869638 -41.07495117 21.87719727 C-31.89729132 16.84202958 -22.78510582 11.69993112 -13.7109375 6.48046875 C-12.62280762 5.86075195 -12.62280762 5.86075195 -11.51269531 5.22851562 C-10.16169268 4.4405909 -8.82652192 3.62473001 -7.51074219 2.77929688 C-4.95523325 1.17093461 -3.06187576 0.03412919 0 0 Z " fill="#257AB1" transform="translate(142.453125,21.97265625)"/>
<path d="M0 0 C1.36414371 0.65032977 2.70598228 1.34866862 4.02734375 2.08203125 C4.80803223 2.51290039 5.5887207 2.94376953 6.39306641 3.38769531 C7.23272949 3.85788086 8.07239258 4.32806641 8.9375 4.8125 C9.82356934 5.30459961 10.70963867 5.79669922 11.62255859 6.30371094 C21.46316372 11.78477372 31.23904147 17.37866806 41 23 C42.07749512 23.6202002 43.15499023 24.24040039 44.26513672 24.87939453 C58.42842211 33.03425861 58.42842211 33.03425861 63.91064453 36.21728516 C66.08112843 37.46976449 68.25999435 38.70777571 70.44482422 39.93505859 C71.54455566 40.55848145 72.64428711 41.1819043 73.77734375 41.82421875 C75.27962524 42.66666138 75.27962524 42.66666138 76.81225586 43.52612305 C77.53421143 44.01250244 78.25616699 44.49888184 79 45 C79 45.66 79 46.32 79 47 C76.98638414 48.39886709 74.99106511 49.64608153 72.875 50.875 C71.8847583 51.46003296 71.8847583 51.46003296 70.87451172 52.05688477 C64.09820552 56.02016584 57.18939942 59.74169765 50.28344727 63.47265625 C43.66671514 67.05736247 37.15803718 70.79018048 30.69091797 74.63696289 C26.24726144 77.27762101 21.75792956 79.7971237 17.203125 82.2421875 C12.60083464 84.76783465 8.05369299 87.38799727 3.5 90 C-4.54331601 94.60969758 -12.61509817 99.14255209 -20.8046875 103.48828125 C-28.59597223 107.64165059 -36.26311479 111.98675185 -43.9206543 116.38085938 C-52.56763496 121.33830728 -61.27664981 126.17864561 -70 131 C-73.08423856 132.70670362 -76.16751968 134.41512293 -79.25 136.125 C-80.00740479 136.54499268 -80.76480957 136.96498535 -81.54516602 137.39770508 C-85.92703642 139.83250131 -90.28383829 142.30555795 -94.625 144.8125 C-100.98286873 148.46457809 -107.42253514 151.95569231 -113.875 155.4375 C-122.54378323 160.1155952 -131.16342593 164.86417296 -139.73339844 169.72021484 C-145.56582255 173.01336082 -151.41790396 176.27172828 -157.2644043 179.53979492 C-162.70078534 182.5817805 -168.12915602 185.63675362 -173.54296875 188.71875 C-175.10809204 189.60868652 -175.10809204 189.60868652 -176.70483398 190.51660156 C-178.68897499 191.64603323 -180.67163748 192.7780675 -182.65258789 193.91308594 C-183.54582764 194.42129883 -184.43906738 194.92951172 -185.359375 195.453125 C-186.13764648 195.89817383 -186.91591797 196.34322266 -187.71777344 196.80175781 C-190.09288105 198.04876553 -192.50455999 199.0207031 -195 200 C-195.20862498 188.49981759 -195.36849178 177.00008592 -195.46630955 165.49839592 C-195.51326085 160.15742995 -195.57692826 154.81775939 -195.67895508 149.47753906 C-195.77682226 144.32271757 -195.83057313 139.16914093 -195.85389519 134.01346207 C-195.87051201 132.04771446 -195.90296352 130.08203429 -195.95157051 128.11681747 C-196.31684424 112.73529749 -196.31684424 112.73529749 -193.14015198 108.54914856 C-190.80406102 106.95762672 -188.65122356 105.95819125 -186 105 C-184.99042236 104.38890381 -183.98084473 103.77780762 -182.94067383 103.14819336 C-182.03857178 102.63393799 -181.13646973 102.11968262 -180.20703125 101.58984375 C-179.17626465 100.99937256 -178.14549805 100.40890137 -177.08349609 99.80053711 C-176.00406738 99.18573486 -174.92463867 98.57093262 -173.8125 97.9375 C-171.48773711 96.60510201 -169.16340272 95.27199277 -166.83984375 93.9375 C-165.96915253 93.43783974 -165.96915253 93.43783974 -165.08087158 92.92808533 C-159.65239924 89.80898759 -154.25928388 86.63209296 -148.875 83.4375 C-138.28347943 77.15741017 -127.65104567 70.94909332 -117.01025391 64.75292969 C-102.54380004 56.32883084 -88.08919812 47.88479359 -73.64968872 39.41461182 C-64.19877975 33.8709249 -54.73903471 28.34262866 -45.27148438 22.82739258 C-40.20750166 19.87612062 -35.15046689 16.91385956 -30.10522461 13.93066406 C-27.41501735 12.34205971 -24.71918861 10.76319251 -22.02197266 9.18652344 C-20.61027447 8.35811808 -19.201301 7.52505966 -17.79443359 6.68847656 C-15.59879949 5.38471465 -13.39432024 4.09721338 -11.1875 2.8125 C-10.52298828 2.41313232 -9.85847656 2.01376465 -9.17382812 1.60229492 C-5.61956239 -0.44380691 -3.87985338 -1.3750793 0 0 Z " fill="#72B3DD" transform="translate(528,23)"/>
<path d="M0 0 C0.33 0 0.66 0 1 0 C1 109.23 1 218.46 1 331 C-3.30841724 329.56386092 -6.21065872 328.47293907 -9.95703125 326.234375 C-10.89168213 325.68128662 -11.82633301 325.12819824 -12.78930664 324.55834961 C-14.28578735 323.66321655 -14.28578735 323.66321655 -15.8125 322.75 C-24.3411442 317.71037629 -32.90888709 312.75955562 -41.5625 307.9375 C-42.58746582 307.36563965 -43.61243164 306.7937793 -44.66845703 306.20458984 C-46.73550279 305.05160804 -48.80272239 303.89893785 -50.87011719 302.74658203 C-56.14900757 299.80078002 -61.42008704 296.84126754 -66.6875 293.875 C-67.63761963 293.34253662 -68.58773926 292.81007324 -69.56665039 292.26147461 C-70.45602295 291.76010986 -71.34539551 291.25874512 -72.26171875 290.7421875 C-73.42127075 290.09032471 -73.42127075 290.09032471 -74.60424805 289.42529297 C-75.79014526 288.71977295 -75.79014526 288.71977295 -77 288 C-78.07564209 287.43587402 -79.15128418 286.87174805 -80.25952148 286.29052734 C-83 284 -83 284 -83.68115234 280.60839844 C-83.6802087 279.27501318 -83.64665898 277.94137727 -83.5859375 276.609375 C-83.57744781 275.90476135 -83.56895813 275.20014771 -83.56021118 274.47418213 C-83.52671308 272.23120919 -83.45146048 269.99187901 -83.375 267.75 C-83.34489485 266.22661457 -83.31751997 264.70317256 -83.29296875 263.1796875 C-83.22694019 259.45194813 -83.12345129 255.72632975 -83 252 C-84.0621875 252.66386719 -85.124375 253.32773437 -86.21875 254.01171875 C-94.71875 259.32421875 -94.71875 259.32421875 -96.84765625 260.64599609 C-98.32440264 261.57499286 -99.79013529 262.52166106 -101.24609375 263.48291016 C-101.95894531 263.94874512 -102.67179687 264.41458008 -103.40625 264.89453125 C-104.37014648 265.53612183 -104.37014648 265.53612183 -105.35351562 266.19067383 C-106.16852539 266.59129028 -106.16852539 266.59129028 -107 267 C-107.66 266.67 -108.32 266.34 -109 266 C-107.52667162 262.231434 -106.05156199 258.46357018 -104.57495117 254.69628906 C-104.07513801 253.42042915 -103.57577295 252.14439358 -103.0769043 250.86816406 C-99.81901998 242.53480439 -96.47101945 234.2471422 -93 226 C-89.55485588 217.76963209 -86.16736597 209.51754397 -82.8125 201.25 C-77.2153783 187.48523366 -71.5059154 173.76910202 -65.77050781 160.06152344 C-60.48063941 147.41366203 -55.25456622 134.74226004 -50.09472656 122.04077148 C-47.2024011 114.92886905 -44.27577698 107.83260848 -41.3125 100.75 C-31.2130005 76.59920257 -21.3500285 52.34862404 -11.484375 28.1015625 C-7.67015196 18.72869688 -3.83510959 9.36433467 0 0 Z " fill="#3487BD" transform="translate(524,271)"/>
<path d="M0 0 C2.21581099 3.32371649 3.46735229 6.71112474 4.8125 10.4375 C7.33050772 17.38444183 10.1292441 24.19169684 13 31 C13.51837812 32.23387135 14.03651754 33.46784302 14.55444336 34.7019043 C15.65761238 37.33009537 16.7611544 39.95812896 17.86523438 42.5859375 C18.28421997 43.58318848 18.28421997 43.58318848 18.71166992 44.60058594 C19.28043776 45.95387802 19.84944951 47.30706761 20.41870117 48.66015625 C23.35590972 55.64285874 26.27873873 62.62850861 29.07202148 69.67041016 C30.76440015 73.91894402 32.51251913 78.14476205 34.25 82.375 C38.85103018 93.59937584 43.36114991 104.85885643 47.84765625 116.12939453 C51.81315779 126.08864628 55.83493156 136.01680843 60.1015625 145.8515625 C63.86421328 154.53932848 67.52961294 163.21255008 70.76147461 172.11230469 C72.6272057 177.17725541 74.77111961 182.08528741 77 187 C79.7497951 193.06636637 82.23394924 199.13600226 84.5 205.40063477 C86.92967637 212.01395032 89.72187069 218.46446335 92.5 224.9375 C96.25576853 233.70180054 99.75509101 242.47023348 102.78125 251.51171875 C104.03470206 255.09932352 105.46561571 258.52533326 107 262 C104.45832839 262.95439263 103.35760654 263.14579893 100.80175781 262.10375977 C100.02670898 261.63768311 99.25166016 261.17160645 98.453125 260.69140625 C97.69161133 260.24224854 96.93009766 259.79309082 96.14550781 259.33032227 C94.71223145 258.45525024 94.71223145 258.45525024 93.25 257.5625 C88.67125 254.8090625 88.67125 254.8090625 84 252 C84 262.56 84 273.12 84 284 C80.803125 285.7325 77.60625 287.465 74.3125 289.25 C64.00324143 294.85978929 53.7978017 300.63596921 43.62646484 306.49121094 C40.95882607 308.02365262 38.28684 309.54822502 35.61328125 311.0703125 C34.72439209 311.5765918 33.83550293 312.08287109 32.91967773 312.60449219 C31.15764489 313.60805328 29.39544134 314.61131475 27.63305664 315.61425781 C23.40078535 318.02995058 19.18832772 320.47222064 15.0078125 322.9765625 C13.8336377 323.67821533 13.8336377 323.67821533 12.63574219 324.39404297 C11.16667842 325.27516394 9.70096783 326.16190855 8.23925781 327.05517578 C3.32999806 330 3.32999806 330 0 330 C0 221.1 0 112.2 0 0 Z " fill="#06416E" transform="translate(141,272)"/>
<path d="M0 0 C1.46770496 0.82498668 2.92969088 1.66020568 4.38671875 2.50390625 C5.17361084 2.95056641 5.96050293 3.39722656 6.77124023 3.85742188 C9.21254086 5.24868761 11.64479612 6.65451438 14.07421875 8.06640625 C15.1734668 8.70473389 15.1734668 8.70473389 16.29492188 9.35595703 C20.52751723 11.82110561 24.74458497 14.31180283 28.95654297 16.81201172 C31.81528085 18.50537064 34.68159401 20.18569395 37.54760742 21.86669922 C42.89198394 25.00188889 48.22677574 28.15025728 53.52905273 31.35620117 C60.0107717 35.27449857 66.55261075 39.07262076 73.13671875 42.81640625 C80.81102065 47.18496374 88.45943535 51.59480557 96.07421875 56.06640625 C97.46265991 56.87609863 97.46265991 56.87609863 98.87915039 57.70214844 C110.24056079 64.39909034 110.24056079 64.39909034 112.07421875 68.06640625 C112.34765625 70.0546875 112.34765625 70.0546875 112.44921875 72.37890625 C112.49820313 73.13816406 112.5471875 73.89742188 112.59765625 74.6796875 C111.60630373 79.19995908 108.29580568 81.25660251 104.62548828 83.68969727 C101.59179334 85.5690027 98.52831444 87.38746832 95.44921875 89.19140625 C94.33562988 89.85156738 93.22204102 90.51172852 92.07470703 91.19189453 C84.62076074 95.60101541 77.13466567 99.95513466 69.62988281 104.27709961 C61.22406676 109.11871156 52.88479245 114.07252766 44.64453125 119.19140625 C38.80315289 122.81993304 32.93093014 126.26678208 26.87109375 129.515625 C23.7983789 131.21935097 20.8125486 133.03124377 17.82421875 134.87890625 C16.20193359 135.87857422 16.20193359 135.87857422 14.546875 136.8984375 C12.07709232 138.42971696 9.63374163 139.99747124 7.1953125 141.578125 C5.88432763 142.40788879 4.57313376 143.23732245 3.26171875 144.06640625 C2.36501465 144.66352417 2.36501465 144.66352417 1.45019531 145.27270508 C-3.31155146 148.2478119 -6.48625274 148.64677435 -11.92578125 148.06640625 C-14.61683323 145.89066209 -16.38111053 144.15574769 -17.92578125 141.06640625 C-18.02767187 139.26598194 -18.06526093 137.46178177 -18.07295227 135.65849304 C-18.08010757 134.51023041 -18.08726288 133.36196777 -18.09463501 132.1789093 C-18.09732391 130.9129039 -18.10001282 129.6468985 -18.1027832 128.3425293 C-18.10904721 127.00060856 -18.11569395 125.65868955 -18.12269592 124.31677246 C-18.14011129 120.66585121 -18.15065912 117.01494305 -18.15890145 113.36399055 C-18.16405045 111.08346119 -18.17012623 108.80293592 -18.17641258 106.52240944 C-18.19546613 99.3884908 -18.20969694 92.25458252 -18.21802455 85.12064332 C-18.22779878 76.88322836 -18.25412221 68.64608199 -18.29452544 60.40876168 C-18.32467593 54.04351309 -18.33949239 47.67834153 -18.34280556 41.31302291 C-18.34515728 37.51048328 -18.35413295 33.70823053 -18.37926674 29.90576744 C-18.40253418 26.32782351 -18.40678643 22.7503556 -18.39650536 19.17235565 C-18.39577332 17.23502532 -18.414874 15.29771924 -18.43457031 13.36048889 C-18.4276265 12.20376678 -18.42068268 11.04704468 -18.41352844 9.85527039 C-18.4159168 8.85219188 -18.41830515 7.84911337 -18.42076588 6.81563854 C-17.67422714 2.66923014 -15.39926256 0.14695921 -12.05078125 -2.30859375 C-7.66960478 -3.59717506 -3.88308947 -2.05575325 0 0 Z " fill="#FDFEFE" transform="translate(298.92578125,291.93359375)"/>
<path d="M0 0 C1.98 0.99 1.98 0.99 4 2 C4.86328125 5.00390625 4.86328125 5.00390625 5.3125 8.5625 C5.47363281 9.73941406 5.63476562 10.91632813 5.80078125 12.12890625 C5.86652344 13.07636719 5.93226562 14.02382812 6 15 C5.67 15.33 5.34 15.66 5 16 C4.89310779 18.06042857 4.85753962 20.12456448 4.84851074 22.18774414 C4.84427833 22.84126138 4.84004592 23.49477861 4.83568525 24.1680994 C4.82259383 26.37378719 4.8166196 28.57943877 4.81054688 30.78515625 C4.80260969 32.36001815 4.79422216 33.93487783 4.78541565 35.50973511 C4.76732146 38.9086544 4.75231927 42.30756869 4.73963928 45.70651245 C4.71947425 51.07528824 4.69181485 56.44400897 4.66296387 61.81274414 C4.60279168 73.20847038 4.55098197 84.6042295 4.5 96 C4.44497066 108.30045979 4.38855212 120.60090295 4.32245111 132.90130901 C4.29402709 138.244071 4.2704581 143.58682634 4.25052643 148.92962646 C4.2371793 152.24675456 4.2197648 155.56385205 4.20121574 158.88095474 C4.19343207 160.42535761 4.18737468 161.96977023 4.18312263 163.51418686 C4.17711444 165.61359587 4.16508554 167.71288438 4.15148926 169.81225586 C4.14633553 170.98993027 4.14118179 172.16760468 4.13587189 173.38096619 C4 176 4 176 3 177 C2.90448842 179.3637366 2.87449334 181.69810703 2.88647461 184.06221008 C2.88632717 184.81162379 2.88617972 185.56103749 2.88602781 186.3331607 C2.8867309 188.8696771 2.89460106 191.40612296 2.90234375 193.94262695 C2.90424171 195.75955858 2.90568256 197.57649074 2.90670013 199.39342308 C2.90983707 203.33749924 2.91610258 207.28155417 2.92469788 211.22562218 C2.93837316 217.55160178 2.94479662 223.87757606 2.95007324 230.2035675 C2.95817374 239.2239524 2.9690064 248.2443299 2.98168945 257.26470947 C3.01374496 280.47203571 3.026201 303.67937223 3.03125 326.88671875 C3.03153765 328.02696062 3.03182529 329.16720249 3.03212166 330.34199715 C3.04093515 368.77202453 2.91629568 407.19709938 2.5 445.625 C2.48797546 446.74359531 2.47595093 447.86219063 2.46356201 449.01468277 C2.32643734 461.67669164 2.1753789 474.33846116 2 487 C1.34 486.67 0.68 486.34 0 486 C0 325.62 0 165.24 0 0 Z " fill="#29597B" transform="translate(57,70)"/>
<path d="M0 0 C0.33 0 0.66 0 1 0 C1 160.05 1 320.1 1 485 C-7.25 489.62 -15.5 494.24 -24 499 C-24.66 498.34 -25.32 497.68 -26 497 C-25.43410156 496.66226562 -24.86820313 496.32453125 -24.28515625 495.9765625 C-23.55167969 495.53054688 -22.81820312 495.08453125 -22.0625 494.625 C-20.96615234 493.96371094 -20.96615234 493.96371094 -19.84765625 493.2890625 C-17.86227728 492.1226016 -17.86227728 492.1226016 -17 490 C-15.14453125 489.25390625 -15.14453125 489.25390625 -12.8125 488.5625 C-7.17280124 486.80003899 -7.17280124 486.80003899 -2 484 C-0.82895376 479.39823471 -0.95164645 474.89310856 -1.15625 470.1875 C-1.18223267 469.4555542 -1.20821533 468.7236084 -1.23498535 467.96948242 C-1.31760172 465.64606742 -1.40783062 463.32305442 -1.5 461 C-1.62149935 457.93770747 -1.73502757 454.87526989 -1.84375 451.8125 C-1.87392212 451.11858154 -1.90409424 450.42466309 -1.93518066 449.7097168 C-2.03782772 446.80120633 -2.01886682 444.10589248 -1.50749886 441.23577332 C-0.93958257 437.61478318 -0.87461353 434.1863103 -0.87415886 430.52059555 C-0.87270542 429.78489425 -0.87125198 429.04919294 -0.86975449 428.29119766 C-0.8661035 425.82462442 -0.86957673 423.35811332 -0.87301636 420.89154053 C-0.87186419 419.1058735 -0.87027603 417.32020671 -0.86828911 415.53454041 C-0.86410907 410.62647143 -0.86618052 405.71842186 -0.86927533 400.8103528 C-0.87153451 395.51793568 -0.86804727 390.22552193 -0.86529541 384.93310547 C-0.86084467 374.56591032 -0.86181099 364.1987224 -0.86470805 353.83152696 C-0.86696432 345.40967958 -0.86727363 336.98783423 -0.86618423 328.56598663 C-0.866031 327.36842096 -0.86587777 326.17085529 -0.86571989 324.93699975 C-0.86540018 322.50439642 -0.86507596 320.07179308 -0.8647473 317.63918975 C-0.86189467 294.82072463 -0.86517639 272.00226352 -0.87054767 249.18379906 C-0.87501779 229.58639788 -0.87423763 209.98900263 -0.86962891 190.39160156 C-0.86428325 167.64986392 -0.86216693 144.90812979 -0.86524117 122.16639161 C-0.86555973 119.74384451 -0.8658741 117.32129741 -0.86618423 114.89875031 C-0.86633851 113.70670602 -0.86649279 112.51466173 -0.86665174 111.2864949 C-0.86751675 102.86856481 -0.8660544 94.45063695 -0.86370468 86.03270721 C-0.86090669 75.78332655 -0.86164502 65.53395355 -0.86698543 55.28457376 C-0.8696221 50.05099135 -0.87062804 44.81742174 -0.86733627 39.58383942 C-0.86437276 34.80000518 -0.86596705 30.0161957 -0.87131383 25.23236373 C-0.87243774 23.49496875 -0.87184738 21.75757172 -0.86943804 20.02017805 C-0.86642972 17.67210158 -0.86948309 15.32411171 -0.87415886 12.97603989 C-0.87432121 11.6677383 -0.87448356 10.35943672 -0.87465084 9.01148963 C-0.79084125 6.07695951 -0.79084125 6.07695951 -2 4 C-1.0625 1.875 -1.0625 1.875 0 0 Z " fill="#78AECF" transform="translate(607,72)"/>
<path d="M0 0 C0.721875 0.103125 1.44375 0.20625 2.1875 0.3125 C-1.8125 3.3125 -1.8125 3.3125 -3.92236304 4.42051965 C-6.32393806 6.82443685 -6.29420511 8.62067097 -6.3365339 11.93280426 C-6.32077182 13.09055052 -6.32077182 13.09055052 -6.30469131 14.2716856 C-6.30930669 15.09569674 -6.31392207 15.91970789 -6.31867731 16.76868907 C-6.32933866 19.55401208 -6.31126047 22.33842628 -6.29351807 25.123703 C-6.29526097 27.13094736 -6.29876069 29.13819084 -6.30387473 31.14542943 C-6.31285378 36.67993177 -6.29677088 42.21412673 -6.27676249 47.74858987 C-6.25954396 53.70973819 -6.26533021 59.67086813 -6.26837158 65.6320343 C-6.2704725 75.96636567 -6.25802498 86.30060347 -6.23542023 96.63490868 C-6.21176806 107.47580632 -6.19635967 118.3166638 -6.19200897 129.15758705 C-6.19173401 129.83114537 -6.19145906 130.50470368 -6.19117576 131.19867286 C-6.18982247 134.61920777 -6.18861692 138.03974272 -6.18746826 141.46027771 C-6.17906221 165.70035248 -6.15210051 189.94037474 -6.11425781 214.18041992 C-6.07753203 237.73217489 -6.04919173 261.2839155 -6.03222656 284.83569336 C-6.03170046 285.56140995 -6.03117435 286.28712655 -6.03063231 287.03483456 C-6.02535832 294.32264795 -6.02025505 301.61046146 -6.01527687 308.89827507 C-6.00513148 323.74495372 -5.99384647 338.59163143 -5.98187256 353.43830872 C-5.9813234 354.12096446 -5.98077424 354.80362021 -5.98020844 355.50696249 C-5.94339353 401.1088305 -5.87992823 446.71066809 -5.8125 492.3125 C-2.8425 493.9625 0.1275 495.6125 3.1875 497.3125 C0.1875 498.3125 0.1875 498.3125 -3.4375 497 C-6.8125 495.3125 -6.8125 495.3125 -7.8125 493.3125 C-7.91372715 490.68607318 -7.95356777 488.08595029 -7.94951439 485.45909405 C-7.95216622 484.63435798 -7.95481804 483.80962192 -7.95755023 482.95989385 C-7.96527571 480.16634113 -7.96580363 477.37283212 -7.96640015 474.57926941 C-7.97041262 472.56820332 -7.97485048 470.55713803 -7.9796797 468.54607373 C-7.99167485 462.99627807 -7.99730044 457.44649111 -8.00186086 451.896685 C-8.00780574 445.92042109 -8.01941826 439.94416764 -8.03015137 433.96791077 C-8.05353891 420.20726031 -8.06808568 406.44660666 -8.08038078 392.68594295 C-8.084634 387.92641575 -8.08919968 383.16688894 -8.0939641 378.40736222 C-8.11922134 353.11337868 -8.14127463 327.8193945 -8.15369225 302.52540112 C-8.15661369 296.66366257 -8.15958118 290.80192405 -8.16259766 284.94018555 C-8.16296857 284.21192188 -8.16333947 283.48365821 -8.16372162 282.73332595 C-8.1758815 259.11272147 -8.20683236 235.49219143 -8.24851918 211.87162193 C-8.29127945 187.59863906 -8.31792972 163.32569551 -8.32316696 139.05267394 C-8.32390744 135.62639209 -8.32481813 132.20011029 -8.32582474 128.77382851 C-8.32601535 128.09948119 -8.32620597 127.42513387 -8.32640236 126.73035178 C-8.32991982 115.86537678 -8.35023547 105.00049483 -8.37662137 94.13555404 C-8.40273015 83.22038883 -8.41009337 72.30531657 -8.39952008 61.39012238 C-8.39431596 55.47357245 -8.39733382 49.55731919 -8.42198563 43.64081192 C-8.4443463 38.22920877 -8.44384135 32.81811766 -8.42478175 27.40650634 C-8.42196317 25.44416824 -8.42768235 23.48179638 -8.44259469 21.51951291 C-8.46157564 18.86018702 -8.44999786 16.20271064 -8.43053246 13.54342937 C-8.44338168 12.77421556 -8.4562309 12.00500175 -8.46946949 11.21247843 C-8.4051451 7.23732478 -7.94330999 5.47830138 -5.44965422 2.31759816 C-2.8125 0.3125 -2.8125 0.3125 0 0 Z " fill="#EBFDFE" transform="translate(63.8125,63.6875)"/>
<path d="M0 0 C0.66 0.33 1.32 0.66 2 1 C2 161.71 2 322.42 2 488 C1.67 488 1.34 488 1 488 C1 328.28 1 168.56 1 4 C0.34 4 -0.32 4 -1 4 C-0.67 2.68 -0.34 1.36 0 0 Z " fill="#ABCFE3" transform="translate(607,68)"/>
<path d="M0 0 C0.50789063 0.27714844 1.01578125 0.55429687 1.5390625 0.83984375 C-1.99869811 2.01909729 -2.4995091 1.58292041 -5.7734375 0.15234375 C-8.12079478 -0.7607928 -8.12079478 -0.7607928 -10.4609375 -1.16015625 C-14.39783843 0.70092419 -16.05371741 2.22901362 -18.4609375 5.83984375 C-18.76274296 8.33588417 -18.76274296 8.33588417 -18.71490479 11.17819214 C-18.72054443 12.28575867 -18.72618408 13.3933252 -18.73199463 14.53445435 C-18.72794617 15.75011078 -18.72389771 16.96576721 -18.71972656 18.21826172 C-18.7232312 19.49813965 -18.72673584 20.77801758 -18.73034668 22.09667969 C-18.73947366 25.60916085 -18.73592471 29.12152468 -18.72958851 32.63400793 C-18.72452794 36.3098924 -18.72922032 39.98576676 -18.73236084 43.66165161 C-18.73600123 49.83711552 -18.73120043 56.01253163 -18.72167969 62.18798828 C-18.71080461 69.32424219 -18.7143135 76.46038173 -18.7253325 83.59663284 C-18.73441479 89.72411924 -18.73568575 95.85157124 -18.73045516 101.9790622 C-18.7273394 105.638403 -18.72691509 109.2976901 -18.73352814 112.95702744 C-18.74038922 117.0389658 -18.73087342 121.12070783 -18.71972656 125.20263672 C-18.72579926 127.02004868 -18.72579926 127.02004868 -18.73199463 128.87417603 C-18.72635498 129.9873822 -18.72071533 131.10058838 -18.71490479 132.24752808 C-18.71415073 133.21243605 -18.71339668 134.17734402 -18.71261978 135.17149162 C-18.43780804 138.08506376 -17.76996328 140.22801651 -16.4609375 142.83984375 C-15.8009375 143.16984375 -15.1409375 143.49984375 -14.4609375 143.83984375 C-14.9559375 144.82984375 -14.9559375 144.82984375 -15.4609375 145.83984375 C-20.39140925 141.06841947 -20.39140925 141.06841947 -20.59515858 137.46813488 C-20.59943206 136.46618745 -20.60370554 135.46424002 -20.60810852 134.43193054 C-20.61526382 133.28366791 -20.62241913 132.13540527 -20.62979126 130.9523468 C-20.63248016 129.6863414 -20.63516907 128.420336 -20.63793945 127.1159668 C-20.64420346 125.77404606 -20.6508502 124.43212705 -20.65785217 123.09020996 C-20.67526754 119.43928871 -20.68581537 115.78838055 -20.6940577 112.13742805 C-20.6992067 109.85689869 -20.70528248 107.57637342 -20.71156883 105.29584694 C-20.73062238 98.1619283 -20.74485319 91.02802002 -20.7531808 83.89408082 C-20.76295503 75.65666586 -20.78927846 67.41951949 -20.82968169 59.18219918 C-20.85983218 52.81695059 -20.87464864 46.45177903 -20.87796181 40.08646041 C-20.88031353 36.28392078 -20.8892892 32.48166803 -20.91442299 28.67920494 C-20.93769043 25.10126101 -20.94194268 21.5237931 -20.93166161 17.94579315 C-20.93092957 16.00846282 -20.95003025 14.07115674 -20.96972656 12.13392639 C-20.96278275 10.97720428 -20.95583893 9.82048218 -20.94868469 8.62870789 C-20.95107305 7.62562938 -20.9534614 6.62255087 -20.95592213 5.58907604 C-20.20938339 1.44266764 -17.93441881 -1.07960329 -14.5859375 -3.53515625 C-9.21767704 -5.11405639 -4.65635468 -2.45025406 0 0 Z " fill="#E6FCFD" transform="translate(301.4609375,293.16015625)"/>
<path d="M0 0 C4.01429097 0.57347014 6.57611645 1.88045304 10 4 C12.31017246 5.06237866 14.65070637 6.02482151 17 7 C17.66 7.33 18.32 7.66 19 8 C19 8.66 19 9.32 19 10 C23.58335908 11.92205381 28.27934033 13.45730076 33 15 C33 15.66 33 16.32 33 17 C33.52207031 17.25007812 34.04414063 17.50015625 34.58203125 17.7578125 C37.06223763 19.03197345 39.46638125 20.41367299 41.87451172 21.81835938 C47.78863606 25.26521235 53.66298926 28.37778866 60 31 C60 31.66 60 32.32 60 33 C62.97 33.33 65.94 33.66 69 34 C69 34.99 69 35.98 69 37 C71.39068734 38.10636395 71.39068734 38.10636395 74 39 C74.66 38.67 75.32 38.34 76 38 C76 39.65 76 41.3 76 43 C69.78955102 41.37171422 64.64524422 38.01468409 59.1875 34.75 C50.61907217 29.68579314 42.00871847 24.71662709 33.3125 19.875 C22.16249216 13.66245243 11.06801051 7.3573551 0 1 C0 0.67 0 0.34 0 0 Z " fill="#4987AA" transform="translate(449,559)"/>
<path d="M0 0 C0.66 0 1.32 0 2 0 C1.67657623 0.88869278 1.35315247 1.77738556 1.01992798 2.69300842 C-0.57635666 8.33086886 -0.30845854 14.0967212 -0.31884766 19.91186523 C-0.32889328 21.20035873 -0.3389389 22.48885223 -0.34928894 23.81639099 C-0.37648162 27.33238078 -0.3917063 30.84833074 -0.40471697 34.36439776 C-0.42039473 38.04531062 -0.44717004 41.72614271 -0.4727478 45.40699768 C-0.51945361 52.36951324 -0.55623727 59.33204413 -0.58942068 66.29463583 C-0.62770015 74.22456429 -0.67709497 82.15441147 -0.72740483 90.08427131 C-0.83060268 106.38945575 -0.9199024 122.69468537 -1 139 C-1.33 139 -1.66 139 -2 139 C-2.98219242 109.54318258 -3.00085873 80.15094095 -2.60510254 50.68280029 C-2.53264092 45.16294845 -2.46891267 39.64299514 -2.40429688 34.12304688 C-2.27774194 23.41525313 -2.14206179 12.70759852 -2 2 C-1.34 2 -0.68 2 0 2 C0 1.34 0 0.68 0 0 Z " fill="#124F76" transform="translate(281,292)"/>
<path d="M0 0 C0.721875 0.144375 1.44375 0.28875 2.1875 0.4375 C3.5796875 0.7159375 3.5796875 0.7159375 5 1 C6.66666667 1.33333333 8.33333333 1.66666667 10 2 C10.33 3.32 10.66 4.64 11 6 C11.78375 5.938125 12.5675 5.87625 13.375 5.8125 C14.674375 5.9053125 14.674375 5.9053125 16 6 C16.99 7.485 16.99 7.485 18 9 C20.30144109 10.07136051 22.6340213 11.07989717 25 12 C25 12.66 25 13.32 25 14 C26.3303125 14.1546875 26.3303125 14.1546875 27.6875 14.3125 C31.07092585 15.01472046 33.11946423 16.1596577 36 18 C36.66 18 37.32 18 38 18 C38.598125 18.639375 39.19625 19.27875 39.8125 19.9375 C43.02246676 22.96404009 45.71315353 23 50 23 C50 23.66 50 24.32 50 25 C49.34 25 48.68 25 48 25 C48 25.66 48 26.32 48 27 C48.763125 26.979375 49.52625 26.95875 50.3125 26.9375 C53 27 53 27 56 28 C56 29.32 56 30.64 56 32 C50.27754709 30.41818375 45.52082655 27.59997363 40.4375 24.625 C38.56783329 23.54275284 36.69803774 22.46072825 34.828125 21.37890625 C33.39049805 20.54383545 33.39049805 20.54383545 31.92382812 19.69189453 C29.03451329 18.01997136 26.13658126 16.3642742 23.234375 14.71484375 C22.30439697 14.18616699 21.37441895 13.65749023 20.41625977 13.11279297 C18.64630331 12.10722586 16.87598019 11.10230374 15.10522461 10.09814453 C3.58520358 3.53317952 3.58520358 3.53317952 0 1 C0 0.67 0 0.34 0 0 Z " fill="#194D72" transform="translate(84,570)"/>
<path d="M0 0 C0.66 0.33 1.32 0.66 2 1 C-1.02806703 4.37745938 -3.9746251 5.98731255 -8 8 C-8.969375 8.845625 -9.93875 9.69125 -10.9375 10.5625 C-14 13 -14 13 -17.1875 13.875 C-23.38495304 15.70375664 -29.41303582 19.41303582 -34 24 C-35.98821313 24.39764263 -37.98944339 24.73775349 -40 25 C-40 25.66 -40 26.32 -40 27 C-39.34 27.33 -38.68 27.66 -38 28 C-41.01031744 28.93423645 -41.86650268 29.04449911 -45 28 C-45 28.66 -45 29.32 -45 30 C-47.1875 31.4375 -47.1875 31.4375 -50 33 C-50.845625 33.5775 -51.69125 34.155 -52.5625 34.75 C-55.40266231 36.20649349 -56.07953887 35.91380179 -59 35 C-49.13833991 29.02610975 -39.20376613 23.18439069 -29.22998047 17.3996582 C-24.15035078 14.44689793 -19.09415481 11.46461856 -14.08203125 8.3984375 C-13.16059326 7.83616455 -12.23915527 7.2738916 -11.28979492 6.69458008 C-9.54480015 5.62584072 -7.80389114 4.55039459 -6.06762695 3.4675293 C-5.29507568 2.99484619 -4.52252441 2.52216309 -3.7265625 2.03515625 C-3.05189941 1.6162915 -2.37723633 1.19742676 -1.68212891 0.76586914 C-1.12702637 0.51313232 -0.57192383 0.26039551 0 0 Z " fill="#80B2CE" transform="translate(458,60)"/>
<path d="M0 0 C0.66 0.33 1.32 0.66 2 1 C0.50518652 2.09047869 -0.99618724 3.17196555 -2.5 4.25 C-3.3353125 4.85328125 -4.170625 5.4565625 -5.03125 6.078125 C-7.91404354 7.9443545 -10.80520177 9.45462225 -13.88574219 10.95556641 C-17.44363816 12.71315058 -20.9077697 14.63373117 -24.375 16.5625 C-25.08527344 16.94857422 -25.79554688 17.33464844 -26.52734375 17.73242188 C-27.20667969 18.11076172 -27.88601563 18.48910156 -28.5859375 18.87890625 C-29.1948584 19.2147876 -29.8037793 19.55066895 -30.43115234 19.89672852 C-32.31423493 21.07970468 -32.31423493 21.07970468 -34 24 C-36.32671865 25.01529541 -38.6603447 26.01488198 -41 27 C-41.53625 27.556875 -42.0725 28.11375 -42.625 28.6875 C-44 30 -44 30 -46.6875 30.1875 C-47.8321875 30.0946875 -47.8321875 30.0946875 -49 30 C-49 30.66 -49 31.32 -49 32 C-50.28913487 32.67154933 -51.58140204 33.33708859 -52.875 34 C-53.59429687 34.37125 -54.31359375 34.7425 -55.0546875 35.125 C-57 36 -57 36 -59 36 C-59 36.66 -59 37.32 -59 38 C-59.99 37.67 -60.98 37.34 -62 37 C-58.55123895 34.11597604 -55.07583543 31.77005286 -51.16015625 29.56640625 C-50.02473389 28.92348633 -48.88931152 28.28056641 -47.71948242 27.61816406 C-47.1226767 27.28272583 -46.52587097 26.9472876 -45.91098022 26.60168457 C-42.76607138 24.83366958 -39.6293348 23.05127097 -36.4921875 21.26953125 C-35.86025986 20.91100067 -35.22833221 20.55247009 -34.57725525 20.18307495 C-26.82956146 15.77953695 -19.17087869 11.22707923 -11.51171875 6.671875 C-10.74263184 6.21748047 -9.97354492 5.76308594 -9.18115234 5.29492188 C-7.75336763 4.4472646 -6.33150404 3.58953377 -4.91650391 2.72070312 C-3.31203445 1.75430454 -1.65998863 0.86757491 0 0 Z " fill="#80B2CD" transform="translate(397,96)"/>
<path d="M0 0 C-3.02022778 1.73022579 -6.04123804 3.45908071 -9.0625 5.1875 C-10.45964233 5.98704102 -10.45964233 5.98704102 -11.88500977 6.80273438 C-17.01570475 9.73529163 -22.15359264 12.65418884 -27.3046875 15.55078125 C-28.84177368 16.4157019 -28.84177368 16.4157019 -30.40991211 17.2980957 C-32.39136238 18.41193248 -34.3739061 19.52382687 -36.35766602 20.63354492 C-40.17101924 22.77790337 -43.91619813 24.88515402 -47.47265625 27.4375 C-48.30667969 27.953125 -49.14070312 28.46875 -50 29 C-50.99 28.67 -51.98 28.34 -53 28 C-52.195625 27.54625 -51.39125 27.0925 -50.5625 26.625 C-47.91143428 25.25274335 -47.91143428 25.25274335 -47 23 C-45.67532254 22.3162955 -44.34136367 21.65035814 -43 21 C-42.34 20.34 -41.68 19.68 -41 19 C-38.8359375 18.3671875 -38.8359375 18.3671875 -36.375 17.875 C-35.55773437 17.70742188 -34.74046875 17.53984375 -33.8984375 17.3671875 C-33.27195312 17.24601563 -32.64546875 17.12484375 -32 17 C-32 16.34 -32 15.68 -32 15 C-30.35 14.67 -28.7 14.34 -27 14 C-27.33 13.01 -27.66 12.02 -28 11 C-26.989375 10.7525 -25.97875 10.505 -24.9375 10.25 C-20.86621646 9.10339362 -17.59755594 7.20258527 -14 5 C-14 4.67 -14 4.34 -14 4 C-12.35 4 -10.7 4 -9 4 C-9 3.34 -9 2.68 -9 2 C-8.01 2 -7.02 2 -6 2 C-6 1.34 -6 0.68 -6 0 C-2.25 -1.125 -2.25 -1.125 0 0 Z " fill="#7EB1CD" transform="translate(577,574)"/>
<path d="M0 0 C2.3125 0.8125 2.3125 0.8125 4 2 C3.67 2.66 3.34 3.32 3 4 C0.71484375 4.6328125 0.71484375 4.6328125 -2.0625 5.125 C-2.98160156 5.29257812 -3.90070313 5.46015625 -4.84765625 5.6328125 C-5.91306641 5.81457031 -5.91306641 5.81457031 -7 6 C-7 6.66 -7 7.32 -7 8 C-7.99 8.495 -7.99 8.495 -9 9 C-8.01 9.33 -7.02 9.66 -6 10 C-6 10.66 -6 11.32 -6 12 C-9.96 12 -13.92 12 -18 12 C-18.66 13.32 -19.32 14.64 -20 16 C-23.6441774 18.4294516 -25.71241272 18.16179575 -30 18 C-27.17857205 15.80154788 -24.30332923 13.94824512 -21.19140625 12.1875 C-20.27939453 11.66929688 -19.36738281 11.15109375 -18.42773438 10.6171875 C-17.00944336 9.81667969 -17.00944336 9.81667969 -15.5625 9 C-13.68854053 7.93796137 -11.81483445 6.87547549 -9.94140625 5.8125 C-9.11326416 5.34457031 -8.28512207 4.87664063 -7.43188477 4.39453125 C-5.70384544 3.40361059 -4.00736857 2.35674063 -2.33569336 1.2734375 C-1.56491455 0.85320313 -0.79413574 0.43296875 0 0 Z " fill="#39769A" transform="translate(99,45)"/>
<path d="M0 0 C2.3125 0.125 2.3125 0.125 5 1 C7.96950326 5.30065989 8.56250836 8.84367338 8 14 C6.02409567 18.02780498 3.81929572 20.18907813 0.125 22.6875 C-0.71804688 23.26886719 -1.56109375 23.85023438 -2.4296875 24.44921875 C-4.89846102 25.93873712 -7.29526169 27.01601814 -10 28 C-10 28.66 -10 29.32 -10 30 C-11.2375 30.433125 -12.475 30.86625 -13.75 31.3125 C-16.33827579 32.26487613 -18.05133927 33.03993054 -20.25 34.75 C-20.8275 35.1625 -21.405 35.575 -22 36 C-24.109375 35.578125 -24.109375 35.578125 -26 35 C-25.29915283 34.59160889 -24.59830566 34.18321777 -23.8762207 33.76245117 C-20.68812172 31.90446349 -17.50030814 30.04598665 -14.3125 28.1875 C-13.20970703 27.54490234 -12.10691406 26.90230469 -10.97070312 26.24023438 C-9.90400391 25.61826172 -8.83730469 24.99628906 -7.73828125 24.35546875 C-6.75899658 23.78465576 -5.77971191 23.21384277 -4.77075195 22.62573242 C-3.85640381 22.08924072 -2.94205566 21.55274902 -2 21 C-1.09789795 20.49766846 -0.1957959 19.99533691 0.73364258 19.4777832 C3.25323745 18.0469748 3.25323745 18.0469748 5 15 C5.69039779 11.1846438 5.87062073 7.49249268 3.87890625 4.078125 C2.38132628 2.24136678 2.38132628 2.24136678 0 0 Z " fill="#A3CADF" transform="translate(405,354)"/>
<path d="M0 0 C6.16879235 2.30054951 11.64910083 5.74257635 17.3125 9.0625 C18.43462891 9.71283203 19.55675781 10.36316406 20.71289062 11.03320312 C21.77314453 11.65259766 22.83339844 12.27199219 23.92578125 12.91015625 C24.89942627 13.47871338 25.87307129 14.04727051 26.8762207 14.63305664 C27.57706787 15.08414795 28.27791504 15.53523926 29 16 C29 16.33 29 16.66 29 17 C25.37 17 21.74 17 18 17 C18.33 15.68 18.66 14.36 19 13 C13.06 12.01 13.06 12.01 7 11 C7 10.34 7 9.68 7 9 C7.66 9 8.32 9 9 9 C9 8.01 9 7.02 9 6 C8.01 6 7.02 6 6 6 C6 5.34 6 4.68 6 4 C4.35 3.67 2.7 3.34 1 3 C0.67 2.01 0.34 1.02 0 0 Z " fill="#347CA8" transform="translate(237,78)"/>
<path d="M0 0 C-0.69971924 0.41773682 -1.39943848 0.83547363 -2.12036133 1.26586914 C-4.77329304 2.85071756 -7.4253646 4.43699386 -10.0769043 6.02416992 C-11.76612717 7.03475719 -13.45629274 8.04376819 -15.14648438 9.05273438 C-22.17042648 13.2588118 -29.11867138 17.56436666 -36 22 C-36.33 21.01 -36.66 20.02 -37 19 C-36.24074219 18.60167969 -35.48148437 18.20335937 -34.69921875 17.79296875 C-33.70535156 17.26316406 -32.71148437 16.73335937 -31.6875 16.1875 C-30.70136719 15.66542969 -29.71523438 15.14335938 -28.69921875 14.60546875 C-26.02461591 13.18129658 -26.02461591 13.18129658 -24.39453125 11.30078125 C-23 10 -23 10 -19 10 C-19 9.34 -19 8.68 -19 8 C-17.36209288 6.95355934 -15.68991979 5.9601817 -14 5 C-13.319375 4.443125 -12.63875 3.88625 -11.9375 3.3125 C-10 2 -10 2 -6 2 C-6 1.34 -6 0.68 -6 0 C-3 -1 -3 -1 0 0 Z " fill="#A1C8DB" transform="translate(394,552)"/>
<path d="M0 0 C1.32 0.33 2.64 0.66 4 1 C-7.71875 8.32421875 -7.71875 8.32421875 -9.84765625 9.64599609 C-11.32440264 10.57499286 -12.79013529 11.52166106 -14.24609375 12.48291016 C-14.95894531 12.94874512 -15.67179687 13.41458008 -16.40625 13.89453125 C-17.37014648 14.53612183 -17.37014648 14.53612183 -18.35351562 15.19067383 C-18.89685547 15.45775146 -19.44019531 15.7248291 -20 16 C-20.66 15.67 -21.32 15.34 -22 15 C-20.35 10.71 -18.7 6.42 -17 2 C-16.67 3.32 -16.34 4.64 -16 6 C-15.67 6.99 -15.34 7.98 -15 9 C-10.18877153 7.47444034 -10.18877153 7.47444034 -7 4 C-4.6859378 3.26924352 -2.35171131 2.59861742 0 2 C0 1.34 0 0.68 0 0 Z " fill="#4887AD" transform="translate(437,522)"/>
<path d="M0 0 C7.64330717 3.68286806 14.99225077 7.77758689 22.3125 12.0625 C23.37017578 12.67416016 24.42785156 13.28582031 25.51757812 13.91601562 C26.53916016 14.51220703 27.56074219 15.10839844 28.61328125 15.72265625 C29.98673706 16.52328491 29.98673706 16.52328491 31.38793945 17.34008789 C34.09150555 19.05814994 36.53652299 20.95576725 39 23 C37.68 23.33 36.36 23.66 35 24 C34.505 23.01 34.505 23.01 34 22 C32.11986894 20.87775145 32.11986894 20.87775145 29.9375 19.875 C29.20402344 19.52179688 28.47054688 19.16859375 27.71484375 18.8046875 C27.14894531 18.53914063 26.58304687 18.27359375 26 18 C26 17.34 26 16.68 26 16 C25.29875 15.731875 24.5975 15.46375 23.875 15.1875 C18.01090589 12.76537417 12.56857678 9.67094241 7.125 6.4375 C6.43664062 6.03853516 5.74828125 5.63957031 5.0390625 5.22851562 C3.32413983 4.20942964 1.65690545 3.1109277 0 2 C0 1.34 0 0.68 0 0 Z " fill="#3D7A9D" transform="translate(266,95)"/>
<path d="M0 0 C4.85963179 0.60745397 8.7405518 2.72758967 13 5 C13 5.66 13 6.32 13 7 C14.32 7 15.64 7 17 7 C17 7.66 17 8.32 17 9 C18.06734375 9.38671875 18.06734375 9.38671875 19.15625 9.78125 C23.18174911 11.5064639 26.64004872 13.92991994 30.28125 16.34375 C32.91777936 18.06395671 32.91777936 18.06395671 35.71875 19.03125 C38 20 38 20 40 23 C34.48966019 21.45710485 29.94433011 18.83252156 25.0625 15.9375 C24.23580811 15.4523291 23.40911621 14.9671582 22.55737305 14.46728516 C20.03480838 12.98393669 17.51731376 11.49223741 15 10 C13.47407012 9.10267446 11.94803412 8.20552935 10.421875 7.30859375 C9.05164926 6.49812925 7.68183362 5.68697087 6.3125 4.875 C5.67127197 4.49722412 5.03004395 4.11944824 4.36938477 3.73022461 C2.89555716 2.84855073 1.44472327 1.92859642 0 1 C0 0.67 0 0.34 0 0 Z " fill="#A5CBDD" transform="translate(345,319)"/>
<path d="M0 0 C5.07693209 1.6923107 7.20559694 2.6519973 11 6 C9.865625 5.814375 8.73125 5.62875 7.5625 5.4375 C6.386875 5.293125 5.21125 5.14875 4 5 C2.25903636 6.74096364 2.64388447 9.19113276 2.46484375 11.56640625 C2.37783203 12.69111328 2.29082031 13.81582031 2.20117188 14.97460938 C2.11416016 16.15861328 2.02714844 17.34261719 1.9375 18.5625 C1.84662109 19.75037109 1.75574219 20.93824219 1.66210938 22.16210938 C1.43733864 25.10778905 1.21682804 28.05372674 1 31 C0.67 31 0.34 31 0 31 C0 20.77 0 10.54 0 0 Z " fill="#B0C7D1" transform="translate(225,524)"/>
<path d="M0 0 C0 9.57 0 19.14 0 29 C-0.33 29 -0.66 29 -1 29 C-1.33 24.71 -1.66 20.42 -2 16 C-2.66 16.33 -3.32 16.66 -4 17 C-4.08097324 14.72975032 -4.13917704 12.45867925 -4.1875 10.1875 C-4.22230469 8.92292969 -4.25710937 7.65835938 -4.29296875 6.35546875 C-4 3 -4 3 -2.55078125 1.05078125 C-1 0 -1 0 0 0 Z " fill="#0B3C60" transform="translate(225,524)"/>
<path d="M0 0 C1.88760923 1.0415262 3.74453678 2.12292305 5.59619141 3.22705078 C6.24136719 3.60410156 6.88654297 3.98115234 7.55126953 4.36962891 C9.13247293 5.29492571 10.70860601 6.22887759 12.28369141 7.16455078 C12.28369141 7.49455078 12.28369141 7.82455078 12.28369141 8.16455078 C9.64369141 8.49455078 7.00369141 8.82455078 4.28369141 9.16455078 C3.95369141 7.84455078 3.62369141 6.52455078 3.28369141 5.16455078 C1.96369141 4.83455078 0.64369141 4.50455078 -0.71630859 4.16455078 C-0.71630859 3.50455078 -0.71630859 2.84455078 -0.71630859 2.16455078 C-2.17454071 2.13754648 -3.63291535 2.11815291 -5.09130859 2.10205078 C-6.30947266 2.08464844 -6.30947266 2.08464844 -7.55224609 2.06689453 C-9.76568002 2.01988744 -9.76568002 2.01988744 -11.71630859 3.16455078 C-10.71630859 0.16455078 -10.71630859 0.16455078 -8.96630859 -1.08544922 C-5.62340346 -2.19975093 -3.15467054 -1.53560208 0 0 Z " fill="#3C7EA5" transform="translate(146.71630859375,23.83544921875)"/>
<path d="M0 0 C9.36609416 4.44758661 18.17563712 9.57518676 27 15 C23.17456525 16.27514492 21.66576992 15.52740413 18 14 C16.9805881 13.01979625 15.97753644 12.02196992 15 11 C12.89667109 10.28552357 12.89667109 10.28552357 11 10 C11 9.34 11 8.68 11 8 C10.21625 7.690625 9.4325 7.38125 8.625 7.0625 C6 6 6 6 4 5 C4 4.34 4 3.68 4 3 C2.68 2.67 1.36 2.34 0 2 C0 1.34 0 0.68 0 0 Z " fill="#3A799F" transform="translate(210,62)"/>
<path d="M0 0 C2.735991 1.21052839 5.3743835 2.56723973 8 4 C4.46223939 5.17925354 3.9614284 4.74307666 0.6875 3.3125 C-3.29011498 1.87798318 -3.29011498 1.87798318 -7.3125 3.5625 C-9.61648656 5.65216223 -11.88337576 7.72055851 -14 10 C-13.73212125 6.07111171 -13.47562903 4.45123779 -10.5625 1.6875 C-6.38622523 -1.06272973 -4.92234436 -1.18500883 0 0 Z " fill="#E4F7FA" transform="translate(295,290)"/>
<path d="M0 0 C1.61108033 0.7902538 3.19840987 1.62988243 4.765625 2.50390625 C6.09980469 3.24350586 6.09980469 3.24350586 7.4609375 3.99804688 C8.84152344 4.77245117 8.84152344 4.77245117 10.25 5.5625 C11.18585937 6.08263672 12.12171875 6.60277344 13.0859375 7.13867188 C15.39296302 8.42166056 17.69751081 9.70889346 20 11 C16.26757812 12.09716797 16.26757812 12.09716797 13.859375 11.22265625 C13.16328125 10.83980469 12.4671875 10.45695312 11.75 10.0625 C11.04359375 9.68222656 10.3371875 9.30195312 9.609375 8.91015625 C9.07828125 8.60980469 8.5471875 8.30945312 8 8 C8 7.34 8 6.68 8 6 C7.071875 5.71125 6.14375 5.4225 5.1875 5.125 C2 4 2 4 -1 2 C-3.29714187 1.97360171 -3.29714187 1.97360171 -5.6875 2.375 C-6.49574219 2.48585938 -7.30398438 2.59671875 -8.13671875 2.7109375 C-8.75160156 2.80632813 -9.36648438 2.90171875 -10 3 C-4.25183416 -1.40692715 -4.25183416 -1.40692715 0 0 Z " fill="#84B3CD" transform="translate(528,23)"/>
<path d="M0 0 C4.5651135 1.33746225 8.18896177 3.18696183 12.1875 5.75 C17.99414615 9.4239192 23.92453532 12.7857261 30 16 C30 16.66 30 17.32 30 18 C28.02 17.34 26.04 16.68 24 16 C24 15.34 24 14.68 24 14 C23.13375 13.73960938 22.2675 13.47921875 21.375 13.2109375 C13.76330252 10.47988864 6.55264192 5.73246361 0 1 C0 0.67 0 0.34 0 0 Z " fill="#86B4CC" transform="translate(577,52)"/>
<path d="M0 0 C0.33 0 0.66 0 1 0 C1.72904559 10.02437685 2.14141393 19.94389808 2 30 C2.66 30 3.32 30 4 30 C4 30.99 4 31.98 4 33 C2.68 32.67 1.36 32.34 0 32 C0 21.44 0 10.88 0 0 Z " fill="#387EA8" transform="translate(441,523)"/>
<path d="M0 0 C0 0.66 0 1.32 0 2 C-2.62214328 3.50519387 -5.24744208 5.00431319 -7.875 6.5 C-8.62136719 6.92925781 -9.36773437 7.35851563 -10.13671875 7.80078125 C-10.85214844 8.20683594 -11.56757813 8.61289062 -12.3046875 9.03125 C-12.96452637 9.40830078 -13.62436523 9.78535156 -14.30419922 10.17382812 C-16 11 -16 11 -18 11 C-18.33 11.99 -18.66 12.98 -19 14 C-20.32 14 -21.64 14 -23 14 C-23 14.66 -23 15.32 -23 16 C-24.98 16.33 -26.96 16.66 -29 17 C-23.92725786 12.80320491 -18.47647779 9.57744983 -12.8125 6.25 C-11.2975293 5.34701172 -11.2975293 5.34701172 -9.75195312 4.42578125 C-8.78837891 3.85730469 -7.82480469 3.28882813 -6.83203125 2.703125 C-5.95264893 2.18395508 -5.0732666 1.66478516 -4.16723633 1.12988281 C-2 0 -2 0 0 0 Z " fill="#84B4CE" transform="translate(489,43)"/>
<path d="M0 0 C0.66 0.33 1.32 0.66 2 1 C-2.68141284 13.58609353 -2.68141284 13.58609353 -5.1875 18.4375 C-7.06736701 21.89016718 -7.06736701 21.89016718 -8.0625 25.375 C-9 28 -9 28 -12 30 C-9.8197371 23.12052968 -7.19745965 16.54944102 -4.3125 9.9375 C-3.89677734 8.97650391 -3.48105469 8.01550781 -3.05273438 7.02539062 C-2.03848513 4.68212514 -1.02085998 2.34039113 0 0 Z " fill="#3B89B5" transform="translate(508,311)"/>
<path d="M0 0 C0 0.99 0 1.98 0 3 C-1.32 3.33 -2.64 3.66 -4 4 C-4 4.66 -4 5.32 -4 6 C-5.32 6 -6.64 6 -8 6 C-8 6.66 -8 7.32 -8 8 C-9.43011973 8.86646667 -10.86940619 9.71781829 -12.3125 10.5625 C-13.51326172 11.27599609 -13.51326172 11.27599609 -14.73828125 12.00390625 C-17 13 -17 13 -20 12 C-16.21253519 8.92019309 -12.0044875 6.669005 -7.75 4.3125 C-7.00492188 3.89677734 -6.25984375 3.48105469 -5.4921875 3.05273438 C-3.66290513 2.03255767 -1.83164698 1.01592513 0 0 Z " fill="#3D7DA2" transform="translate(133,26)"/>
<path d="M0 0 C0 0.99 0 1.98 0 3 C-0.66 3 -1.32 3 -2 3 C-2 3.66 -2 4.32 -2 5 C-3.26691507 5.67408308 -4.53870749 6.33900497 -5.8125 7 C-6.52019531 7.37125 -7.22789062 7.7425 -7.95703125 8.125 C-10 9 -10 9 -13 9 C-13.33 10.32 -13.66 11.64 -14 13 C-16.375 13.625 -16.375 13.625 -19 14 C-19.66 13.34 -20.32 12.68 -21 12 C-14.07 8.04 -7.14 4.08 0 0 Z " fill="#1F597E" transform="translate(317,426)"/>
<path d="M0 0 C0 0.66 0 1.32 0 2 C-5.94 5.3 -11.88 8.6 -18 12 C-18.66 11.34 -19.32 10.68 -20 10 C-19.43410156 9.66226563 -18.86820313 9.32453125 -18.28515625 8.9765625 C-17.55167969 8.53054688 -16.81820312 8.08453125 -16.0625 7.625 C-15.33160156 7.18414063 -14.60070312 6.74328125 -13.84765625 6.2890625 C-11.86227728 5.1226016 -11.86227728 5.1226016 -11 3 C-9.00390625 2.1484375 -9.00390625 2.1484375 -6.5625 1.375 C-5.35787109 0.98441406 -5.35787109 0.98441406 -4.12890625 0.5859375 C-2 0 -2 0 0 0 Z " fill="#7FB2CD" transform="translate(601,559)"/>
<path d="M0 0 C0.33 0 0.66 0 1 0 C1.36093104 2.14470593 1.71357589 4.29080797 2.0625 6.4375 C2.25972656 7.63246094 2.45695312 8.82742187 2.66015625 10.05859375 C2.77230469 11.02925781 2.88445313 11.99992187 3 13 C2.67 13.33 2.34 13.66 2 14 C1.84235595 15.77869726 1.74899323 17.56318476 1.68359375 19.34765625 C1.64169922 20.42724609 1.59980469 21.50683594 1.55664062 22.61914062 C1.51732422 23.75544922 1.47800781 24.89175781 1.4375 26.0625 C1.39431641 27.20267578 1.35113281 28.34285156 1.30664062 29.51757812 C1.20017161 32.34492195 1.09815793 35.17235738 1 38 C0.67 38 0.34 38 0 38 C0 25.46 0 12.92 0 0 Z " fill="#02406F" transform="translate(60,72)"/>
<path d="M0 0 C0 2.31 0 4.62 0 7 C-3.63 7 -7.26 7 -11 7 C-4.48275862 0 -4.48275862 0 0 0 Z " fill="#0D4C76" transform="translate(332,418)"/>
<path d="M0 0 C3.53969809 1.31169663 6.59937388 2.85998982 9.75 4.9375 C10.52859375 5.44152344 11.3071875 5.94554688 12.109375 6.46484375 C14 8 14 8 15 11 C12.36 11 9.72 11 7 11 C7 10.34 7 9.68 7 9 C7.66 9 8.32 9 9 9 C9 8.01 9 7.02 9 6 C8.01 6 7.02 6 6 6 C6 5.34 6 4.68 6 4 C4.35 3.67 2.7 3.34 1 3 C0.67 2.01 0.34 1.02 0 0 Z " fill="#2470A3" transform="translate(237,78)"/>
<path d="M0 0 C2 3 2 3 2 5 C2.53109375 5.09152344 3.0621875 5.18304687 3.609375 5.27734375 C6.80555415 6.24350902 9.38739075 7.85115751 12.25 9.5625 C13.32765625 10.20316406 14.4053125 10.84382812 15.515625 11.50390625 C16.33546875 11.99761719 17.1553125 12.49132812 18 13 C17.67 13.66 17.34 14.32 17 15 C10.73 11.7 4.46 8.4 -2 5 C-1.34 4.67 -0.68 4.34 0 4 C0 2.68 0 1.36 0 0 Z " fill="#235170" transform="translate(61,553)"/>
<path d="M0 0 C6.47713607 3.46479154 12.81642857 7.03318059 19 11 C18.01 11.495 18.01 11.495 17 12 C14.1796875 10.78515625 14.1796875 10.78515625 10.875 9.0625 C9.77929688 8.49660156 8.68359375 7.93070313 7.5546875 7.34765625 C6.71164063 6.90292969 5.86859375 6.45820312 5 6 C5 5.34 5 4.68 5 4 C3.02 4 1.04 4 -1 4 C-0.67 2.68 -0.34 1.36 0 0 Z " fill="#3B7A9E" transform="translate(183,46)"/>
<path d="M0 0 C11.63285652 2.50585176 11.63285652 2.50585176 16 8 C16.66 8.66 17.32 9.32 18 10 C17.01 10.495 17.01 10.495 16 11 C13.39620289 9.63751366 10.93235573 8.22796338 8.4375 6.6875 C7.73947266 6.27048828 7.04144531 5.85347656 6.32226562 5.42382812 C1.13442944 2.26885889 1.13442944 2.26885889 0 0 Z " fill="#1C567A" transform="translate(258,542)"/>
<path d="M0 0 C0.73605469 0.48210937 1.47210938 0.96421875 2.23046875 1.4609375 C3.20628906 2.09257812 4.18210937 2.72421875 5.1875 3.375 C6.63189453 4.31472656 6.63189453 4.31472656 8.10546875 5.2734375 C10.70156093 6.82198371 13.19392323 7.90874792 16 9 C17.8125 10.625 17.8125 10.625 19 12 C18.01 12.495 18.01 12.495 17 13 C15.02880859 12.10375977 15.02880859 12.10375977 12.6484375 10.69140625 C11.79765625 10.19189453 10.946875 9.69238281 10.0703125 9.17773438 C9.18085938 8.64470703 8.29140625 8.11167969 7.375 7.5625 C6.4778125 7.03333984 5.580625 6.50417969 4.65625 5.95898438 C2.43316461 4.646418 0.21477355 3.32652747 -2 2 C-1.34 1.34 -0.68 0.68 0 0 Z " fill="#245C80" transform="translate(306,294)"/>
<path d="M0 0 C4.01429097 0.57347014 6.57611645 1.88045304 10 4 C11.22175254 4.53799515 12.45140261 5.05833605 13.6875 5.5625 C17 7 17 7 19 9 C16 10 16 10 14.19067383 9.28735352 C13.53607178 8.90506592 12.88146973 8.52277832 12.20703125 8.12890625 C11.49482422 7.71962891 10.78261719 7.31035156 10.04882812 6.88867188 C9.31083984 6.45103516 8.57285156 6.01339844 7.8125 5.5625 C7.06291016 5.12873047 6.31332031 4.69496094 5.54101562 4.24804688 C3.68872757 3.17442769 1.8436575 2.08837319 0 1 C0 0.67 0 0.34 0 0 Z " fill="#4E89AB" transform="translate(449,559)"/>
<path d="M0 0 C4.53860088 0.53395304 7.29087883 2.4197418 11 5 C11.99 5.33 12.98 5.66 14 6 C14 6.66 14 7.32 14 8 C15.2065625 8.433125 15.2065625 8.433125 16.4375 8.875 C19 10 19 10 20 12 C15.67578354 10.41555427 11.73557417 8.282196 7.75 6 C7.11320312 5.64421875 6.47640625 5.2884375 5.8203125 4.921875 C1.12118676 2.24237351 1.12118676 2.24237351 0 0 Z " fill="#A2C9DD" transform="translate(385,342)"/>
<path d="M0 0 C-2.95031456 1.86716955 -5.91143123 3.71645299 -8.875 5.5625 C-9.71675781 6.09552734 -10.55851562 6.62855469 -11.42578125 7.17773438 C-12.23144531 7.67724609 -13.03710938 8.17675781 -13.8671875 8.69140625 C-14.61081543 9.15748291 -15.35444336 9.62355957 -16.12060547 10.10375977 C-16.74080566 10.39951904 -17.36100586 10.69527832 -18 11 C-18.66 10.67 -19.32 10.34 -20 10 C-17.97093414 5.94186828 -12.64760075 4.23549118 -8.5625 2.75 C-7.716875 2.5025 -6.87125 2.255 -6 2 C-6 1.34 -6 0.68 -6 0 C-3 -1 -3 -1 0 0 Z " fill="#A0C6DA" transform="translate(352,578)"/>
<path d="M0 0 C1.65 0 3.3 0 5 0 C5 0.66 5 1.32 5 2 C5.9075 2.268125 6.815 2.53625 7.75 2.8125 C10.72991834 3.90131632 12.68590359 4.86391101 15 7 C15 7.66 15 8.32 15 9 C11.32305352 7.62859834 8.04681411 5.96304199 4.6875 3.9375 C3.80449219 3.41027344 2.92148437 2.88304688 2.01171875 2.33984375 C1.34785156 1.89769531 0.68398438 1.45554687 0 1 C0 0.67 0 0.34 0 0 Z " fill="#D9F3F8" transform="translate(266,94)"/>
<path d="M0 0 C-2.78748519 1.67373751 -5.58064427 3.33776267 -8.375 5 C-9.1690625 5.47695313 -9.963125 5.95390625 -10.78125 6.4453125 C-11.92207031 7.12207031 -11.92207031 7.12207031 -13.0859375 7.8125 C-13.7876709 8.23144531 -14.4894043 8.65039062 -15.21240234 9.08203125 C-17 10 -17 10 -19 10 C-19 9.34 -19 8.68 -19 8 C-18.01 8 -17.02 8 -16 8 C-15.67 7.01 -15.34 6.02 -15 5 C-13.02 4.67 -11.04 4.34 -9 4 C-9 3.34 -9 2.68 -9 2 C-3.375 -1.125 -3.375 -1.125 0 0 Z " fill="#E4F9FC" transform="translate(513,29)"/>
<path d="M0 0 C4.05606165 0.46800711 7.46588679 0.87953208 11 3 C11 3.99 11 4.98 11 6 C13.475 6.99 13.475 6.99 16 8 C15.67 8.66 15.34 9.32 15 10 C12.49732313 8.52520827 9.99783579 7.04544936 7.5 5.5625 C6.78457031 5.14162109 6.06914062 4.72074219 5.33203125 4.28710938 C3.53787459 3.21915898 1.76678262 2.11265239 0 1 C0 0.67 0 0.34 0 0 Z " fill="#1B557B" transform="translate(275,553)"/>
<path d="M0 0 C0.66 0.33 1.32 0.66 2 1 C-3.0599961 4.59526039 -8.41492496 7.30680176 -14 10 C-14 9.01 -14 8.02 -14 7 C-13.01 7 -12.02 7 -11 7 C-11 6.34 -11 5.68 -11 5 C-9.21289414 4.13633178 -7.4201535 3.28431406 -5.625 2.4375 C-4.62726563 1.96183594 -3.62953125 1.48617188 -2.6015625 0.99609375 C-1.74304688 0.66738281 -0.88453125 0.33867187 0 0 Z " fill="#E0F4F9" transform="translate(338,412)"/>
<path d="M0 0 C0.33 0.99 0.66 1.98 1 3 C-2.0684847 5.97550031 -3.46236331 6.96474513 -7.8125 7.25 C-8.864375 7.1675 -9.91625 7.085 -11 7 C-7.54319097 4.23455278 -3.85658398 2.15078722 0 0 Z " fill="#377BA4" transform="translate(80,56)"/>
<path d="M0 0 C0.721875 0.144375 1.44375 0.28875 2.1875 0.4375 C3.5796875 0.7159375 3.5796875 0.7159375 5 1 C6.66666667 1.33333333 8.33333333 1.66666667 10 2 C10.33 3.32 10.66 4.64 11 6 C11.99 6 12.98 6 14 6 C14 6.66 14 7.32 14 8 C8.76481294 6.56032356 4.36973991 4.18303389 0 1 C0 0.67 0 0.34 0 0 Z " fill="#184A6D" transform="translate(84,570)"/>
<path d="M0 0 C0.33 0.99 0.66 1.98 1 3 C-3.95 5.475 -3.95 5.475 -9 8 C-9 5 -9 5 -6.75 2.3125 C-4 0 -4 0 0 0 Z " fill="#1B4C6E" transform="translate(206,563)"/>
<path d="M0 0 C0 0.99 0 1.98 0 3 C-0.66 3 -1.32 3 -2 3 C-2.226875 3.639375 -2.45375 4.27875 -2.6875 4.9375 C-4 7 -4 7 -6.625 7.75 C-7.800625 7.87375 -7.800625 7.87375 -9 8 C-9 7.01 -9 6.02 -9 5 C-6.03 3.35 -3.06 1.7 0 0 Z " fill="#3A79A0" transform="translate(68,63)"/>
<path d="M0 0 C0.8971875 0.309375 0.8971875 0.309375 1.8125 0.625 C-0.47624173 1.96358524 -2.76819656 3.29601014 -5.0625 4.625 C-5.71347656 5.0065625 -6.36445313 5.388125 -7.03515625 5.78125 C-11.9609375 8.625 -11.9609375 8.625 -14.1875 8.625 C-14.1875 7.965 -14.1875 7.305 -14.1875 6.625 C-13.57261719 6.28726563 -12.95773437 5.94953125 -12.32421875 5.6015625 C-11.51597656 5.15554687 -10.70773437 4.70953125 -9.875 4.25 C-9.07449219 3.80914062 -8.27398437 3.36828125 -7.44921875 2.9140625 C-1.7961262 -0.30790735 -1.7961262 -0.30790735 0 0 Z " fill="#E5F9FC" transform="translate(489.1875,41.375)"/>
<path d="M0 0 C0 3.63 0 7.26 0 11 C-0.33 11 -0.66 11 -1 11 C-1.33 8.69 -1.66 6.38 -2 4 C-3.32 4 -4.64 4 -6 4 C-6 4.66 -6 5.32 -6 6 C-7.32 5.67 -8.64 5.34 -10 5 C-8.71186658 4.16121545 -7.41936744 3.32913217 -6.125 2.5 C-5.40570313 2.0359375 -4.68640625 1.571875 -3.9453125 1.09375 C-2 0 -2 0 0 0 Z " fill="#DAF7FB" transform="translate(440,524)"/>
<path d="M0 0 C1.98 0 3.96 0 6 0 C6 0.99 6 1.98 6 3 C6.78375 3.28875 7.5675 3.5775 8.375 3.875 C11 5 11 5 13 7 C12.01 7.495 12.01 7.495 11 8 C8.3984375 6.6015625 8.3984375 6.6015625 5.375 4.625 C4.37210937 3.97789062 3.36921875 3.33078125 2.3359375 2.6640625 C1.56507813 2.11492188 0.79421875 1.56578125 0 1 C0 0.67 0 0.34 0 0 Z " fill="#20587B" transform="translate(292,563)"/>
<path d="M0 0 C5.29576664 0.25217936 9.44236418 2.51296523 14 5 C10.35202603 6.21599132 9.20645737 5.3327695 5.8515625 3.76953125 C3.29418674 2.70665567 0.73677743 2.33375334 -2 2 C-1.34 1.34 -0.68 0.68 0 0 Z " fill="#D0E8F0" transform="translate(289,289)"/>
<path d="M0 0 C1.79398267 0.95399078 3.58511655 1.91334026 5.375 2.875 C6.37273437 3.40867188 7.37046875 3.94234375 8.3984375 4.4921875 C11 6 11 6 13 8 C8.22076642 7.42069896 4.97870856 5.60146329 1 3 C0.67 2.01 0.34 1.02 0 0 Z " fill="#417DA1" transform="translate(319,126)"/>
<path d="M0 0 C-1.59622656 1.03320481 -3.20229106 2.05122429 -4.8125 3.0625 C-6.15248047 3.91521484 -6.15248047 3.91521484 -7.51953125 4.78515625 C-10 6 -10 6 -13 5 C-12.195625 4.54625 -11.39125 4.0925 -10.5625 3.625 C-7.91143428 2.25274335 -7.91143428 2.25274335 -7 0 C-3.86650268 -1.04449911 -3.01031744 -0.93423645 0 0 Z " fill="#8EBAD2" transform="translate(537,597)"/>
<path d="M0 0 C-2.36797991 2.61724095 -4.89600354 4.32861729 -8 6 C-8.66 6 -9.32 6 -10 6 C-10 5.01 -10 4.02 -10 3 C-6.62637846 0.39749195 -4.23092172 -0.36265043 0 0 Z " fill="#DEF4F8" transform="translate(308,431)"/>
<path d="M0 0 C-1.62170379 1.00533667 -3.24747237 2.00411907 -4.875 3 C-6.23238281 3.8353125 -6.23238281 3.8353125 -7.6171875 4.6875 C-10 6 -10 6 -12 6 C-11 3 -11 3 -9.2578125 1.796875 C-8.55398438 1.45140625 -7.85015625 1.1059375 -7.125 0.75 C-6.42632812 0.39421875 -5.72765625 0.0384375 -5.0078125 -0.328125 C-3 -1 -3 -1 0 0 Z " fill="#E5F8FD" transform="translate(352,123)"/>
<path d="M0 0 C3.34252724 -0.07427838 5.8035914 -0.06546953 9 1 C9 2.32 9 3.64 9 5 C5.22454612 3.90931332 2.52956528 3.0916909 0 0 Z " fill="#1F567B" transform="translate(131,597)"/>
<path d="M0 0 C4.05606165 0.46800711 7.46588679 0.87953208 11 3 C10.67 3.99 10.34 4.98 10 6 C6.7 4.35 3.4 2.7 0 1 C0 0.67 0 0.34 0 0 Z " fill="#508FB3" transform="translate(498,587)"/>
<path d="M0 0 C4.62 2.31 9.24 4.62 14 7 C11 8 11 8 9.0625 7.29296875 C8.381875 6.92816406 7.70125 6.56335938 7 6.1875 C6.319375 5.83042969 5.63875 5.47335937 4.9375 5.10546875 C3.24874367 4.14192431 1.61775824 3.07850549 0 2 C0 1.34 0 0.68 0 0 Z " fill="#DAF4FB" transform="translate(483,579)"/>
<path d="M0 0 C0.99 0.495 0.99 0.495 2 1 C1.01 1.495 1.01 1.495 0 2 C0 1.34 0 0.68 0 0 Z M-4 1 C-2.02 1.66 -0.04 2.32 2 3 C1.67 3.66 1.34 4.32 1 5 C-0.98 5 -2.96 5 -5 5 C-4.67 3.68 -4.34 2.36 -4 1 Z " fill="#6BADD4" transform="translate(338,132)"/>
<path d="M0 0 C3.63 1.98 7.26 3.96 11 6 C10.67 6.66 10.34 7.32 10 8 C6.01328937 6.63312778 3.11505367 4.84804907 0 2 C0 1.34 0 0.68 0 0 Z " fill="#3A799C" transform="translate(307,119)"/>
<path d="M0 0 C-1.95519384 1.17192047 -3.9142539 2.3373929 -5.875 3.5 C-6.96554687 4.1496875 -8.05609375 4.799375 -9.1796875 5.46875 C-12 7 -12 7 -14 7 C-14 6.34 -14 5.68 -14 5 C-12.23628182 3.96692229 -10.46374967 2.94887951 -8.6875 1.9375 C-7.70136719 1.36902344 -6.71523438 0.80054687 -5.69921875 0.21484375 C-3 -1 -3 -1 0 0 Z " fill="#E2F7FC" transform="translate(421,83)"/>
<path d="M0 0 C-3.19990508 2.74277578 -6.00499382 4.6302836 -10 6 C-10.33 5.34 -10.66 4.68 -11 4 C-9.73760288 3.13341385 -8.46472499 2.28207941 -7.1875 1.4375 C-6.47980469 0.96183594 -5.77210938 0.48617187 -5.04296875 -0.00390625 C-3 -1 -3 -1 0 0 Z " fill="#88B8D1" transform="translate(592,565)"/>
<path d="M0 0 C0.33 0 0.66 0 1 0 C1.36923077 6.4 1.36923077 6.4 -0.5 9.4375 C-0.995 9.953125 -1.49 10.46875 -2 11 C-2.66 10.67 -3.32 10.34 -4 10 C-2.68 6.7 -1.36 3.4 0 0 Z " fill="#3E8BB8" transform="translate(457,434)"/>
<path d="M0 0 C3.96 1.98 7.92 3.96 12 6 C11.67 6.66 11.34 7.32 11 8 C6.25 6.125 6.25 6.125 4 5 C4 4.34 4 3.68 4 3 C2.68 2.67 1.36 2.34 0 2 C0 1.34 0 0.68 0 0 Z " fill="#447FA1" transform="translate(210,62)"/>
<path d="M0 0 C0 3 0 3 -1 5 C-3.64860427 5.59355614 -6.29197322 5.74209269 -9 6 C-6.45543849 3.03134491 -3.51005335 1.6380249 0 0 Z " fill="#86B7D1" transform="translate(517,26)"/>
<path d="M0 0 C-3.63 1.98 -7.26 3.96 -11 6 C-11 5.01 -11 4.02 -11 3 C-9.35 2.67 -7.7 2.34 -6 2 C-6 1.34 -6 0.68 -6 0 C-3 -1 -3 -1 0 0 Z " fill="#DCF3F8" transform="translate(127,30)"/>
<path d="M0 0 C-0.33 0.99 -0.66 1.98 -1 3 C-2.11375 2.979375 -3.2275 2.95875 -4.375 2.9375 C-7.83215921 2.73619282 -7.83215921 2.73619282 -10 4 C-9 1 -9 1 -7.25 -0.25 C-4.47275102 -1.17574966 -2.78428335 -0.77341204 0 0 Z " fill="#39779B" transform="translate(145,23)"/>
<path d="M0 0 C3.96074927 0.56582132 6.72259306 1.69695729 10 4 C10.99 5.485 10.99 5.485 12 7 C7.39104317 5.68315519 3.85859765 3.84801255 0 1 C0 0.67 0 0.34 0 0 Z " fill="#20587C" transform="translate(321,581)"/>
<path d="M0 0 C1.32 0.33 2.64 0.66 4 1 C-0.95 3.97 -0.95 3.97 -6 7 C-6 6.01 -6 5.02 -6 4 C-5.01 4 -4.02 4 -3 4 C-3 3.34 -3 2.68 -3 2 C-2.01 1.34 -1.02 0.68 0 0 Z " fill="#9EC7DB" transform="translate(401,544)"/>
<path d="M0 0 C0.66 0.66 1.32 1.32 2 2 C0.54462432 2.83848804 -0.91440373 3.67063934 -2.375 4.5 C-3.59316406 5.19609375 -3.59316406 5.19609375 -4.8359375 5.90625 C-7 7 -7 7 -9 7 C-9 6.34 -9 5.68 -9 5 C-6.03 3.35 -3.06 1.7 0 0 Z " fill="#9CC6D9" transform="translate(414,537)"/>
<path d="M0 0 C4.30764815 1.56641751 8.06171464 3.68336156 12 6 C9 7 9 7 6 6 C6 5.34 6 4.68 6 4 C4.35 3.67 2.7 3.34 1 3 C0.67 2.01 0.34 1.02 0 0 Z " fill="#407B9E" transform="translate(237,78)"/>
<path d="M0 0 C0 0.66 0 1.32 0 2 C-3.96 2 -7.92 2 -12 2 C-4.8 -1.6 -4.8 -1.6 0 0 Z " fill="#1A6A9E" transform="translate(93,55)"/>
<path d="M0 0 C0.66 0.474375 1.32 0.94875 2 1.4375 C5.7933028 3.41317854 8.75524068 3.64027463 13 4 C13 4.33 13 4.66 13 5 C9.37 5 5.74 5 2 5 C2 4.34 2 3.68 2 3 C1.34 3 0.68 3 0 3 C0 2.01 0 1.02 0 0 Z " fill="#125178" transform="translate(282,436)"/>
<path d="M0 0 C0.33 0 0.66 0 1 0 C1.66 4.29 2.32 8.58 3 13 C2.01 13.495 2.01 13.495 1 14 C-0.38226016 11.23547967 -0.09525387 8.9538637 -0.0625 5.875 C-0.05347656 4.77929688 -0.04445312 3.68359375 -0.03515625 2.5546875 C-0.02355469 1.71164063 -0.01195312 0.86859375 0 0 Z " fill="#064678" transform="translate(60,72)"/>
<path d="M0 0 C0 0.99 0 1.98 0 3 C-2.27837542 5.27837542 -3.50812237 5.96646289 -6.75 6.1875 C-7.86375 6.0946875 -7.86375 6.0946875 -9 6 C-6.11912454 3.59927045 -3.43595166 1.52708963 0 0 Z " fill="#3C7CA2" transform="translate(110,39)"/>
<path d="M0 0 C2.97 1.65 5.94 3.3 9 5 C7.02 5.99 7.02 5.99 5 7 C3.29115995 5.37660195 1.62553283 3.70680947 0 2 C0 1.34 0 0.68 0 0 Z " fill="#D9F0F6" transform="translate(325,584)"/>
<path d="M0 0 C2.97 0 5.94 0 9 0 C8.67 0.99 8.34 1.98 8 3 C5.36 2.67 2.72 2.34 0 2 C0 1.34 0 0.68 0 0 Z " fill="#06355A" transform="translate(174,577)"/>
<path d="M0 0 C2.97 1.65 5.94 3.3 9 5 C6.3333581 6.33332095 4.83319697 5.67102033 2 5 C2 4.34 2 3.68 2 3 C1.34 3 0.68 3 0 3 C0 2.01 0 1.02 0 0 Z " fill="#DAF0F6" transform="translate(248,537)"/>
<path d="M0 0 C0.66 0 1.32 0 2 0 C1.37240135 2.92879371 0.41377341 5.36095629 -1 8 C-1.66 8 -2.32 8 -3 8 C-2.45276317 4.62537285 -1.9451 2.91765 0 0 Z " fill="#3784B2" transform="translate(484,370)"/>
<path d="M0 0 C-1.28813342 0.83878455 -2.58063256 1.67086783 -3.875 2.5 C-4.59429687 2.9640625 -5.31359375 3.428125 -6.0546875 3.90625 C-8 5 -8 5 -10 5 C-9.67 4.01 -9.34 3.02 -9 2 C-8.01 2 -7.02 2 -6 2 C-6 1.34 -6 0.68 -6 0 C-3.50907189 -1.24546405 -2.58919267 -0.7767578 0 0 Z " fill="#E6FAFD" transform="translate(388,102)"/>
<path d="M0 0 C2.76276177 0.52268466 5.3260876 1.10869587 8 2 C9.1875 4.0625 9.1875 4.0625 10 6 C6.40992874 4.66654496 3.20429093 3.1056769 0 1 C0 0.67 0 0.34 0 0 Z " fill="#DAF3F9" transform="translate(191,50)"/>
<path d="M0 0 C1.64666203 0.1135629 3.29236082 0.24117381 4.9375 0.375 C5.85402344 0.44460938 6.77054688 0.51421875 7.71484375 0.5859375 C8.84599609 0.79089844 8.84599609 0.79089844 10 1 C10.33 1.66 10.66 2.32 11 3 C3.43365385 3.37211538 3.43365385 3.37211538 1.23828125 1.48828125 C0.82964844 0.99714844 0.42101562 0.50601563 0 0 Z " fill="#397FAB" transform="translate(508,592)"/>
<path d="M0 0 C0 0.66 0 1.32 0 2 C-4.15267176 5.11450382 -4.15267176 5.11450382 -7.3125 4.6875 C-7.869375 4.460625 -8.42625 4.23375 -9 4 C-2.25 0 -2.25 0 0 0 Z " fill="#E0F6FB" transform="translate(578,574)"/>
<path d="M0 0 C2 3 2 3 2 5 C3.32 5.33 4.64 5.66 6 6 C5.34 6.66 4.68 7.32 4 8 C2.02 7.01 0.04 6.02 -2 5 C-1.34 4.67 -0.68 4.34 0 4 C0 2.68 0 1.36 0 0 Z " fill="#26587C" transform="translate(61,553)"/>
<path d="M0 0 C3.3 1.65 6.6 3.3 10 5 C6 6 6 6 2.75 4.1875 C1.8425 3.465625 0.935 2.74375 0 2 C0 1.34 0 0.68 0 0 Z " fill="#D9EEF5" transform="translate(226,524)"/>
<path d="M0 0 C1.46534385 3.80989402 0.55203911 6.3241179 -1 10 C-1.99 10.495 -1.99 10.495 -3 11 C-2.44894091 7.0507432 -1.61064629 3.65079826 0 0 Z " fill="#3C85B1" transform="translate(452,446)"/>
<path d="M0 0 C3.3 1.65 6.6 3.3 10 5 C7 6 7 6 4.4375 5.3125 C2 4 2 4 0 0 Z " fill="#437EA3" transform="translate(251,86)"/>
<path d="M0 0 C1.65 0 3.3 0 5 0 C-0.14285714 4.42857143 -0.14285714 4.42857143 -4 5 C-4.33 4.34 -4.66 3.68 -5 3 C-3.68 3 -2.36 3 -1 3 C-0.67 2.01 -0.34 1.02 0 0 Z " fill="#1F4B6B" transform="translate(158,590)"/>
<path d="M0 0 C4.40114397 0.50298788 6.71195019 2.08772731 10 5 C7.23723823 4.47731534 4.6739124 3.89130413 2 3 C2 2.34 2 1.68 2 1 C1.34 0.67 0.68 0.34 0 0 Z " fill="#DAEEF5" transform="translate(320,306)"/>
<path d="M0 0 C0.33 0 0.66 0 1 0 C0.67 2.97 0.34 5.94 0 9 C-0.99 9.33 -1.98 9.66 -3 10 C-2.01 6.7 -1.02 3.4 0 0 Z " fill="#3E88B6" transform="translate(516,290)"/>
<path d="M0 0 C-2.88035092 2.24027294 -5.84866512 4.16172132 -9 6 C-9 3 -9 3 -7.3125 1.3125 C-4.6402007 -0.20421041 -3.02346601 -0.2519555 0 0 Z " fill="#D9F2F8" transform="translate(66,64)"/>
<path d="M0 0 C2.125 0.9375 2.125 0.9375 4 2 C3.67 2.66 3.34 3.32 3 4 C1.35 4 -0.3 4 -2 4 C-2 3.01 -2 2.02 -2 1 C-1.34 0.67 -0.68 0.34 0 0 Z " fill="#347BA7" transform="translate(99,45)"/>
<path d="M0 0 C1.65 0.33 3.3 0.66 5 1 C2.08596738 2.94268841 -0.85808576 4.46395304 -4 6 C-3.67 4.68 -3.34 3.36 -3 2 C-2.01 2 -1.02 2 0 2 C0 1.34 0 0.68 0 0 Z " fill="#DBF3F9" transform="translate(138,20)"/>
<path d="M0 0 C2.31 0 4.62 0 7 0 C6.67 1.32 6.34 2.64 6 4 C1.125 2.25 1.125 2.25 0 0 Z " fill="#3080B3" transform="translate(485,577)"/>
<path d="M0 0 C2.91517292 1.07401108 4.77810176 1.77810176 7 4 C6.01 4.33 5.02 4.66 4 5 C1.3125 3.5625 1.3125 3.5625 -1 2 C-0.67 1.34 -0.34 0.68 0 0 Z " fill="#5693B6" transform="translate(461,564)"/>
<path d="M0 0 C2.31 0.33 4.62 0.66 7 1 C7.33 2.32 7.66 3.64 8 5 C5.36 3.68 2.72 2.36 0 1 C0 0.67 0 0.34 0 0 Z " fill="#276186" transform="translate(275,553)"/>
<path d="M0 0 C0.66 0 1.32 0 2 0 C2.33 2.31 2.66 4.62 3 7 C2.01 7.495 2.01 7.495 1 8 C-0.35439668 5.29120665 -0.06501451 2.99066732 0 0 Z " fill="#2A81B3" transform="translate(458,433)"/>
<path d="M0 0 C0.66 0.33 1.32 0.66 2 1 C0.35 2.65 -1.3 4.3 -3 6 C-3.99 5.67 -4.98 5.34 -6 5 C-4.06745228 2.9754262 -2.36841312 1.57894208 0 0 Z " fill="#ACCFE1" transform="translate(345,409)"/>
<path d="M0 0 C2.31 0.66 4.62 1.32 7 2 C7 2.66 7 3.32 7 4 C7.66 4 8.32 4 9 4 C8.67 4.66 8.34 5.32 8 6 C6.66402348 5.19185349 5.331275 4.37836819 4 3.5625 C3.2575 3.11003906 2.515 2.65757813 1.75 2.19140625 C1.1725 1.79824219 0.595 1.40507813 0 1 C0 0.67 0 0.34 0 0 Z " fill="#CFECF3" transform="translate(162,33)"/>
</svg>
